<?xml version="1.0" standalone="no"?>
<!DOCTYPE svg PUBLIC "-//W3C//DTD SVG 1.1//EN" "http://www.w3.org/Graphics/SVG/1.1/DTD/svg11.dtd" >
<svg xmlns="http://www.w3.org/2000/svg" xmlns:xlink="http://www.w3.org/1999/xlink" version="1.1">
<metadata>
Created by FontForge 20170731 at Tue Aug  9 18:58:17 2016
 By Aleksey,,,
Copyright (c) 2014 by Mattox Shuler. All rights reserved.
</metadata>
<defs>
<font id="Industry-Medium" horiz-adv-x="639" >
  <font-face 
    font-family="Industry Medium"
    font-weight="500"
    font-stretch="normal"
    units-per-em="1000"
    panose-1="0 0 6 0 0 0 0 0 0 0"
    ascent="800"
    descent="-200"
    x-height="540"
    cap-height="700"
    bbox="-231 -311 941 940"
    underline-thickness="50"
    underline-position="-200"
    unicode-range="U+0020-FB02"
  />
<missing-glyph horiz-adv-x="517" 
 />
    <glyph glyph-name="fi" unicode="fi" horiz-adv-x="621" 
d="M118 0v463h-89v77h89v56q0 134 134 134h91v-75h-81q-29 0 -41.5 -12.5t-12.5 -41.5v-61h145v-77h-144v-463h-91zM447 615v102h101v-102h-101zM452 0v540h91v-540h-91z" />
    <glyph glyph-name="fl" unicode="fl" horiz-adv-x="619" 
d="M118 0v463h-89v77h89v56q0 134 134 134h91v-75h-81q-29 0 -41.5 -12.5t-12.5 -41.5v-61h145v-77h-144v-463h-91zM451 0v730h91v-730h-91z" />
    <glyph glyph-name=".notdef" horiz-adv-x="517" 
 />
    <glyph glyph-name=".null" horiz-adv-x="0" 
 />
    <glyph glyph-name="nonmarkingreturn" horiz-adv-x="333" 
 />
    <glyph glyph-name="space" unicode=" " horiz-adv-x="240" 
 />
    <glyph glyph-name="exclam" unicode="!" horiz-adv-x="289" 
d="M111 213l-24 487h115l-24 -487h-67zM87 0v119h115v-119h-115z" />
    <glyph glyph-name="quotedbl" unicode="&#x22;" horiz-adv-x="405" 
d="M90 463l-30 237h117l-29 -237h-58zM257 463l-29 237h116l-29 -237h-58z" />
    <glyph glyph-name="numbersign" unicode="#" horiz-adv-x="770" 
d="M728 442h-134l-49 -160h114v-82h-138l-61 -200h-90l61 200h-186l-61 -200h-90l61 200h-113v82h138l48 160h-118v82h143l54 176h90l-54 -176h186l54 176h89l-53 -176h109v-82zM456 282l48 160h-186l-48 -160h186z" />
    <glyph glyph-name="dollar" unicode="$" horiz-adv-x="625" 
d="M415 379q37 -8 58.5 -17.5t44 -29t32.5 -55.5t10 -89q0 -104 -33.5 -146t-107.5 -42h-68v-95h-81v95h-65q-74 0 -107 42t-33 146v29h94v-34q0 -59 12 -77.5t43 -18.5h62v231l-64 14q-37 8 -58.5 17.5t-44 28.5t-32.5 53.5t-10 85.5q0 101 33.5 142t107.5 41h62v95h81v-95
h54q73 0 106.5 -41t33.5 -142v-26h-94v32q0 54 -12 72t-43 18h-51v-218zM244 418l32 -7v202h-57q-31 0 -43 -18t-12 -72q0 -57 14.5 -75.5t65.5 -29.5zM408 87q31 0 43 18.5t12 77.5q0 62 -13 80t-65 30l-40 9v-215h63z" />
    <glyph glyph-name="percent" unicode="%" horiz-adv-x="629" 
d="M118 424q-37 0 -54 17t-17 54v134q0 37 16.5 54t54.5 17h79q37 0 54 -17t17 -54v-134q0 -37 -17 -54t-54 -17h-79zM95 0l361 700h79l-362 -700h-78zM129 480h57q13 0 17.5 4.5t4.5 17.5v120q0 13 -4.5 17.5t-17.5 4.5h-57q-13 0 -17.5 -4.5t-4.5 -17.5v-120
q0 -13 4.5 -17.5t17.5 -4.5zM433 0q-37 0 -54.5 17t-17.5 54v134q0 37 17 54t55 17h78q38 0 55 -17t17 -54v-134q0 -37 -17 -54t-55 -17h-78zM444 56h56q13 0 17.5 4.5t4.5 17.5v120q0 13 -4.5 17.5t-17.5 4.5h-56q-13 0 -17.5 -4.5t-4.5 -17.5v-120q0 -13 4.5 -17.5
t17.5 -4.5z" />
    <glyph glyph-name="ampersand" unicode="&#x26;" horiz-adv-x="658" 
d="M209 0q-140 0 -140 140v111q0 85 73 108q-65 29 -65 108v93q0 140 140 140h173q140 0 140 -140v-65h-96v63q0 30 -12.5 42.5t-42.5 12.5h-152q-29 0 -41.5 -12.5t-12.5 -42.5v-101q0 -29 12.5 -41.5t41.5 -12.5h402v-86h-78v-177q0 -140 -140 -140h-202zM219 87h182
q29 0 41.5 12.5t12.5 42.5v175h-236q-29 0 -41.5 -12.5t-12.5 -42.5v-120q0 -30 12.5 -42.5t41.5 -12.5z" />
    <glyph glyph-name="quotesingle" unicode="'" horiz-adv-x="237" 
d="M90 463l-30 237h117l-29 -237h-58z" />
    <glyph glyph-name="parenleft" unicode="(" horiz-adv-x="360" 
d="M232 -106q-140 0 -140 140v590q0 140 140 140h67v-88h-57q-29 0 -41.5 -12.5t-12.5 -42.5v-584q0 -30 12.5 -42.5t41.5 -12.5h57v-88h-67z" />
    <glyph glyph-name="parenright" unicode=")" horiz-adv-x="360" 
d="M62 -106v88h56q30 0 42.5 12.5t12.5 42.5v584q0 30 -12.5 42.5t-42.5 12.5h-56v88h67q140 0 140 -140v-590q0 -140 -140 -140h-67z" />
    <glyph glyph-name="asterisk" unicode="*" horiz-adv-x="408" 
d="M133 360l-64 47l102 108l-145 27l24 76l134 -65l-20 147h80l-20 -147l134 64l24 -75l-146 -27l102 -108l-64 -46l-70 130z" />
    <glyph glyph-name="plus" unicode="+" horiz-adv-x="508" 
d="M214 182v148h-151v80h151v148h80v-148h151v-80h-151v-148h-80z" />
    <glyph glyph-name="comma" unicode="," horiz-adv-x="233" 
d="M42 -127l68 127h-52v120h117v-85q0 -26 -7.5 -43t-33.5 -55l-47 -64h-45z" />
    <glyph glyph-name="hyphen" unicode="-" horiz-adv-x="430" 
d="M60 286v88h310v-88h-310z" />
    <glyph glyph-name="period" unicode="." horiz-adv-x="233" 
d="M58 0v120h117v-120h-117z" />
    <glyph glyph-name="slash" unicode="/" horiz-adv-x="483" 
d="M19 -70l354 840h91l-354 -840h-91z" />
    <glyph glyph-name="zero" unicode="0" 
d="M213 0q-140 0 -140 140v420q0 140 140 140h213q140 0 140 -140v-420q0 -140 -140 -140h-213zM223 88h193q29 0 41.5 12.5t12.5 42.5v414q0 30 -12.5 42.5t-41.5 12.5h-193q-29 0 -41.5 -12.5t-12.5 -42.5v-414q0 -30 12.5 -42.5t41.5 -12.5z" />
    <glyph glyph-name="one" unicode="1" horiz-adv-x="386" 
d="M188 0v601l-141 -50v85l157 64h80v-700h-96z" />
    <glyph glyph-name="two" unicode="2" horiz-adv-x="599" 
d="M66 0v197q0 52 31 79.5t113 64.5l167 76q34 16 48 27.5t14 31.5v81q0 30 -12.5 42.5t-42.5 12.5h-159q-30 0 -42.5 -12.5t-12.5 -42.5v-66h-95v69q0 140 140 140h180q140 0 140 -140v-95q0 -52 -31 -79t-113 -65l-168 -76q-34 -16 -47.5 -27.5t-13.5 -31.5v-98h375v-88
h-471z" />
    <glyph glyph-name="three" unicode="3" horiz-adv-x="602" 
d="M196 0q-140 0 -140 140v65h96v-63q0 -30 12.5 -42.5t42.5 -12.5h184q29 0 41.5 12.5t12.5 42.5v120q0 30 -12.5 42.5t-41.5 12.5h-180v86h172q29 0 41.5 12.5t12.5 41.5v101q0 30 -12.5 42.5t-41.5 12.5h-168q-30 0 -42.5 -12.5t-12.5 -42.5v-63h-96v65q0 140 140 140
h189q140 0 140 -140v-95q0 -77 -65 -106q73 -23 73 -106v-113q0 -140 -140 -140h-205z" />
    <glyph glyph-name="four" unicode="4" horiz-adv-x="624" 
d="M395 0v168h-347l-17 77l360 455h98v-445h104v-87h-104v-168h-94zM147 255h248v317z" />
    <glyph glyph-name="five" unicode="5" horiz-adv-x="606" 
d="M211 0q-140 0 -140 140v65h96v-62q0 -30 12.5 -42.5t42.5 -12.5h168q29 0 41.5 12.5t12.5 42.5v174q0 31 -17 43t-66 12q-63 0 -104 -13t-82 -40l-96 27v354h448v-88h-352v-234q38 40 79.5 60t115.5 20q92 0 131 -33.5t39 -106.5v-177q0 -141 -141 -141h-188z" />
    <glyph glyph-name="six" unicode="6" horiz-adv-x="616" 
d="M213 0q-140 0 -140 140v420q0 140 140 140h183q140 0 140 -140v-59h-96v56q0 55 -54 55h-163q-54 0 -54 -55v-198q38 40 81.5 60t120.5 20q95 0 135 -33.5t40 -106.5v-159q0 -140 -140 -140h-193zM223 88h172q30 0 42.5 12.5t12.5 42.5v154q0 31 -17.5 43t-71.5 12
q-110 0 -192 -53v-156q0 -30 12.5 -42.5t41.5 -12.5z" />
    <glyph glyph-name="seven" unicode="7" horiz-adv-x="559" 
d="M115 0l298 613h-379v87h489v-66l-305 -634h-103z" />
    <glyph glyph-name="eight" unicode="8" horiz-adv-x="617" 
d="M201 0q-140 0 -140 140v113q0 83 73 106q-65 29 -65 106v95q0 140 140 140h200q140 0 140 -140v-95q0 -76 -65 -106q73 -24 73 -106v-113q0 -140 -140 -140h-216zM219 403h179q30 0 42.5 12.5t12.5 41.5v101q0 30 -12.5 42.5t-42.5 12.5h-179q-29 0 -41.5 -12.5
t-12.5 -42.5v-101q0 -29 12.5 -41.5t41.5 -12.5zM211 87h195q30 0 42.5 12.5t12.5 42.5v120q0 30 -12.5 42.5t-42.5 12.5h-195q-29 0 -41.5 -12.5t-12.5 -42.5v-120q0 -30 12.5 -42.5t41.5 -12.5z" />
    <glyph glyph-name="nine" unicode="9" horiz-adv-x="616" 
d="M220 0q-140 0 -140 140v59h96v-56q0 -29 13 -42t42 -13h162q29 0 42 13t13 42v205q-39 -40 -81.5 -60t-120.5 -20q-95 0 -135 33.5t-40 106.5v152q0 140 140 140h193q140 0 140 -140v-420q0 -140 -140 -140h-184zM255 354q66 0 108.5 13t84.5 40v150q0 30 -12.5 42.5
t-42.5 12.5h-172q-29 0 -41.5 -12.5t-12.5 -42.5v-148q0 -31 17.5 -43t70.5 -12z" />
    <glyph glyph-name="colon" unicode=":" horiz-adv-x="233" 
d="M58 420v120h117v-120h-117zM58 0v120h117v-120h-117z" />
    <glyph glyph-name="semicolon" unicode=";" horiz-adv-x="233" 
d="M58 420v120h117v-120h-117zM42 -127l68 127h-52v120h117v-85q0 -26 -7.5 -43t-33.5 -55l-47 -64h-45z" />
    <glyph glyph-name="less" unicode="&#x3c;" horiz-adv-x="508" 
d="M437 86l-378 229v83l378 229v-86l-302 -185l302 -183v-87z" />
    <glyph glyph-name="equal" unicode="=" horiz-adv-x="508" 
d="M63 416v86h382v-86h-382zM63 233v86h382v-86h-382z" />
    <glyph glyph-name="greater" unicode="&#x3e;" horiz-adv-x="508" 
d="M71 86v87l302 183l-302 185v86l378 -229v-83z" />
    <glyph glyph-name="question" unicode="?" horiz-adv-x="559" 
d="M186 197v78q0 24 9 43t33 38t42 29.5t60 33.5l30 17q35 17 47.5 29.5t12.5 32.5v59q0 30 -12.5 42.5t-42.5 12.5h-189q-29 0 -41.5 -12.5t-12.5 -42.5v-70h-96v73q0 140 140 140h210q140 0 140 -140v-73q0 -47 -34.5 -78.5t-109.5 -70.5l-30 -16q-34 -18 -47 -29.5
t-13 -26.5v-69h-96zM186 0v121h96v-121h-96z" />
    <glyph glyph-name="at" unicode="@" horiz-adv-x="944" 
d="M230 -160q-140 0 -140 140v580q0 140 140 140h485q140 0 140 -140v-371q0 -140 -140 -140h-118l-20 68q-67 -76 -166 -76q-77 0 -112.5 34t-35.5 106v178q0 72 35.5 106t112.5 34q99 0 166 -76l20 72h67v-389h47q41 0 58 19t17 65v372q0 39 -17.5 56.5t-56.5 17.5h-480
q-38 0 -56 -17.5t-18 -56.5v-584q0 -39 18 -56.5t56 -17.5h509v-64h-511zM421 116q86 0 156 56v196q-70 56 -155 56q-42 0 -57 -14t-15 -47v-186q0 -33 15 -47t56 -14z" />
    <glyph glyph-name="A" unicode="A" horiz-adv-x="660" 
d="M530 0l-64 191h-277l-64 -191h-100l243 700h124l243 -700h-105zM218 279h219l-109 328z" />
    <glyph glyph-name="B" unicode="B" horiz-adv-x="646" 
d="M90 0v700h348q140 0 140 -140v-96q0 -77 -65 -106q73 -25 73 -107v-111q0 -140 -140 -140h-356zM186 401h241q30 0 42.5 12.5t12.5 41.5v103q0 30 -12.5 42.5t-42.5 12.5h-241v-212zM186 87h249q30 0 42.5 12.5t12.5 42.5v119q0 30 -12.5 42.5t-42.5 12.5h-249v-229z" />
    <glyph glyph-name="C" unicode="C" horiz-adv-x="629" 
d="M213 0q-140 0 -140 140v420q0 140 140 140h216q140 0 140 -140v-89h-96v86q0 30 -12.5 42.5t-42.5 12.5h-195q-29 0 -41.5 -12.5t-12.5 -42.5v-414q0 -30 12.5 -42.5t41.5 -12.5h195q30 0 42.5 12.5t12.5 42.5v86h96v-89q0 -140 -140 -140h-216z" />
    <glyph glyph-name="D" unicode="D" horiz-adv-x="663" 
d="M90 0v700h361q140 0 140 -140v-420q0 -140 -140 -140h-361zM186 88h254q30 0 42.5 12.5t12.5 42.5v414q0 30 -12.5 42.5t-42.5 12.5h-254v-524z" />
    <glyph glyph-name="E" unicode="E" horiz-adv-x="595" 
d="M90 0v700h453v-88h-357v-210h297v-88h-297v-226h357v-88h-453z" />
    <glyph glyph-name="F" unicode="F" horiz-adv-x="578" 
d="M90 0v700h453v-88h-357v-218h297v-87h-297v-307h-96z" />
    <glyph glyph-name="G" unicode="G" horiz-adv-x="647" 
d="M213 0q-140 0 -140 140v420q0 140 140 140h223q140 0 140 -140v-75h-96v72q0 30 -12.5 42.5t-41.5 12.5h-203q-29 0 -41.5 -12.5t-12.5 -42.5v-414q0 -30 12.5 -42.5t41.5 -12.5h203q29 0 41.5 12.5t12.5 42.5v142h-166v86h262v-231q0 -140 -140 -140h-223z" />
    <glyph glyph-name="H" unicode="H" horiz-adv-x="694" 
d="M90 0v700h96v-298h322v298h96v-700h-96v314h-322v-314h-96z" />
    <glyph glyph-name="I" unicode="I" horiz-adv-x="277" 
d="M90 0v700h96v-700h-96z" />
    <glyph glyph-name="J" unicode="J" horiz-adv-x="569" 
d="M176 0q-140 0 -140 140v127h96v-124q0 -30 12.5 -42.5t41.5 -12.5h151q30 0 42.5 12.5t12.5 42.5v557h96v-560q0 -140 -140 -140h-172z" />
    <glyph glyph-name="K" unicode="K" horiz-adv-x="643" 
d="M643 0h-110l-213 345l-134 -156v-189h-96v700h96v-383l323 383h115l-240 -280z" />
    <glyph glyph-name="L" unicode="L" horiz-adv-x="554" 
d="M90 0v700h96v-612h332v-88h-428z" />
    <glyph glyph-name="M" unicode="M" horiz-adv-x="841" 
d="M90 0v700h113l217 -479l218 479h113v-700h-94v544l-198 -446h-79l-198 446v-544h-92z" />
    <glyph glyph-name="N" unicode="N" horiz-adv-x="710" 
d="M90 0v700h104l333 -545v545h92v-700h-96l-341 556v-556h-92z" />
    <glyph glyph-name="O" unicode="O" horiz-adv-x="658" 
d="M213 0q-140 0 -140 140v420q0 140 140 140h233q140 0 140 -140v-420q0 -140 -140 -140h-233zM223 88h212q30 0 42.5 12.5t12.5 42.5v414q0 30 -12.5 42.5t-42.5 12.5h-212q-29 0 -41.5 -12.5t-12.5 -42.5v-414q0 -30 12.5 -42.5t41.5 -12.5z" />
    <glyph glyph-name="P" unicode="P" horiz-adv-x="630" 
d="M90 0v700h352q140 0 140 -140v-161q0 -140 -140 -140h-256v-259h-96zM186 347h245q55 0 55 55v155q0 55 -55 55h-245v-265z" />
    <glyph glyph-name="Q" unicode="Q" horiz-adv-x="654" 
d="M280 -127v127h-67q-140 0 -140 140v420q0 140 140 140h229q140 0 140 -140v-420q0 -140 -140 -140h-66v-127h-96zM223 88h208q30 0 42.5 12.5t12.5 42.5v414q0 30 -12.5 42.5t-42.5 12.5h-208q-29 0 -41.5 -12.5t-12.5 -42.5v-414q0 -30 12.5 -42.5t41.5 -12.5z" />
    <glyph glyph-name="R" unicode="R" horiz-adv-x="654" 
d="M460 277l143 -277h-105l-143 275h-169v-275h-96v700h351q140 0 140 -140v-144q0 -130 -121 -139zM186 362h244q30 0 42.5 12.5t12.5 41.5v142q0 30 -12.5 42.5t-42.5 12.5h-244v-251z" />
    <glyph glyph-name="S" unicode="S" horiz-adv-x="623" 
d="M205 0q-140 0 -140 140v77h94v-78q0 -29 12.5 -41.5t42.5 -12.5h194q30 0 42.5 12.5t12.5 41.5v84q0 31 -13.5 44.5t-46.5 21.5l-192 43q-72 16 -108 45t-36 98v85q0 140 140 140h201q140 0 140 -140v-69h-95v70q0 29 -12.5 41.5t-41.5 12.5h-182q-29 0 -41.5 -12.5
t-12.5 -41.5v-73q0 -31 13.5 -44.5t45.5 -20.5l193 -44q72 -16 108 -45.5t36 -97.5v-96q0 -140 -140 -140h-214z" />
    <glyph glyph-name="T" unicode="T" horiz-adv-x="569" 
d="M236 0v613h-206v87h509v-87h-207v-613h-96z" />
    <glyph glyph-name="U" unicode="U" horiz-adv-x="663" 
d="M221 0q-140 0 -140 140v560h96v-557q0 -30 12.5 -42.5t41.5 -12.5h200q30 0 42.5 12.5t12.5 42.5v557h96v-560q0 -140 -140 -140h-221z" />
    <glyph glyph-name="V" unicode="V" horiz-adv-x="629" 
d="M259 0l-233 700h105l184 -594l187 594h101l-233 -700h-111z" />
    <glyph glyph-name="W" unicode="W" horiz-adv-x="919" 
d="M210 0l-184 700h102l136 -577l155 577h84l155 -577l136 577h99l-185 -700h-101l-146 543l-146 -543h-105z" />
    <glyph glyph-name="X" unicode="X" horiz-adv-x="620" 
d="M23 0l232 357l-224 343h108l174 -266l174 266h102l-226 -343l234 -357h-108l-182 278l-181 -278h-103z" />
    <glyph glyph-name="Y" unicode="Y" horiz-adv-x="605" 
d="M255 0v245l-242 455h104l187 -357l187 357h102l-242 -455v-245h-96z" />
    <glyph glyph-name="Z" unicode="Z" horiz-adv-x="597" 
d="M55 0v71l371 543h-354v86h470v-71l-371 -543h369v-86h-485z" />
    <glyph glyph-name="bracketleft" unicode="[" horiz-adv-x="362" 
d="M92 -106v870h209v-88h-113v-694h113v-88h-209z" />
    <glyph glyph-name="backslash" unicode="\" horiz-adv-x="483" 
d="M373 -70l-354 840h91l354 -840h-91z" />
    <glyph glyph-name="bracketright" unicode="]" horiz-adv-x="362" 
d="M62 -106v88h113v694h-113v88h209v-870h-209z" />
    <glyph glyph-name="asciicircum" unicode="^" horiz-adv-x="576" 
d="M81 372l155 335h104l155 -335h-91l-116 257l-116 -257h-91z" />
    <glyph glyph-name="underscore" unicode="_" horiz-adv-x="563" 
d="M6 -123v78h551v-78h-551z" />
    <glyph glyph-name="grave" unicode="`" horiz-adv-x="540" 
d="M300 766l-135 144h119l90 -144h-74z" />
    <glyph glyph-name="a" unicode="a" horiz-adv-x="550" 
d="M205 -4q-82 0 -117.5 37t-35.5 121q0 81 33 115t104 42q113 12 201 15v82q0 29 -12.5 41.5t-41.5 12.5h-121q-29 0 -41.5 -12.5t-12.5 -41.5v-20h-91v18q0 134 134 134h143q134 0 134 -134v-406h-91v77q-34 -42 -74.5 -61.5t-110.5 -19.5zM215 75q56 0 93 13.5t82 44.5
v133l-189 -25q-33 -5 -45.5 -20.5t-12.5 -61.5q0 -49 15 -66.5t57 -17.5z" />
    <glyph glyph-name="b" unicode="b" horiz-adv-x="575" 
d="M355 -4q-70 0 -109 19t-81 61v-76h-91v730h91v-266q42 42 81 61t109 19q85 0 121.5 -32.5t36.5 -104.5v-274q0 -72 -36.5 -104.5t-121.5 -32.5zM345 79q45 0 61 12.5t16 44.5v268q0 32 -16 44.5t-61 12.5q-61 0 -99 -12.5t-81 -41.5v-274q43 -29 81 -41.5t99 -12.5z" />
    <glyph glyph-name="c" unicode="c" horiz-adv-x="529" 
d="M196 0q-134 0 -134 134v272q0 134 134 134h148q134 0 134 -134v-47h-91v46q0 29 -12.5 41.5t-41.5 12.5h-126q-29 0 -41.5 -12.5t-12.5 -41.5v-270q0 -29 12.5 -41.5t41.5 -12.5h126q29 0 41.5 12.5t12.5 41.5v46h91v-47q0 -134 -134 -134h-148z" />
    <glyph glyph-name="d" unicode="d" horiz-adv-x="575" 
d="M220 -4q-85 0 -121.5 32.5t-36.5 104.5v274q0 72 36.5 104.5t121.5 32.5q70 0 109 -19t81 -61v266h91v-730h-91v76q-42 -42 -81 -61t-109 -19zM230 79q61 0 99 12.5t81 41.5v274q-43 29 -81 41.5t-99 12.5q-45 0 -61 -12.5t-16 -44.5v-268q0 -32 16 -44.5t61 -12.5z" />
    <glyph glyph-name="e" unicode="e" horiz-adv-x="545" 
d="M487 248h-334v-117q0 -29 12.5 -41.5t41.5 -12.5h135q28 0 41 12.5t13 41.5v40h91v-37q0 -134 -134 -134h-157q-134 0 -134 134v272q0 134 134 134h157q134 0 134 -134v-158zM207 463q-29 0 -41.5 -12.5t-12.5 -41.5v-93h243v93q0 29 -12.5 41.5t-41.5 12.5h-135z" />
    <glyph glyph-name="f" unicode="f" horiz-adv-x="374" 
d="M118 0v463h-89v77h89v56q0 134 134 134h91v-75h-81q-29 0 -41.5 -12.5t-12.5 -41.5v-61h145v-77h-144v-463h-91z" />
    <glyph glyph-name="g" unicode="g" horiz-adv-x="575" 
d="M124 -160v77h232q29 0 41.5 12.5t12.5 41.5v122q-28 -28 -48 -42.5t-56.5 -26t-85.5 -11.5q-85 0 -121.5 33t-36.5 105v256q0 72 36.5 104.5t121.5 32.5q70 0 109 -19t81 -61v76h91v-566q0 -134 -134 -134h-243zM230 96q60 0 98 12.5t82 41.5v257q-43 29 -81 41.5
t-99 12.5q-45 0 -61 -12t-16 -42v-257q0 -30 16 -42t61 -12z" />
    <glyph glyph-name="h" unicode="h" horiz-adv-x="568" 
d="M74 0v730h91v-265q42 42 79.5 61t103.5 19q81 0 116.5 -32.5t35.5 -102.5v-410h-92v407q0 31 -14.5 43t-54.5 12q-57 0 -94 -12.5t-80 -41.5v-408h-91z" />
    <glyph glyph-name="i" unicode="i" horiz-adv-x="247" 
d="M73 615v102h101v-102h-101zM78 0v540h91v-540h-91z" />
    <glyph glyph-name="j" unicode="j" horiz-adv-x="247" 
d="M73 615v102h101v-102h-101zM-33 -171v64l58 25q53 20 53 58v564h91v-563q0 -61 -32 -90.5t-102 -43.5z" />
    <glyph glyph-name="k" unicode="k" horiz-adv-x="526" 
d="M511 0h-100l-145 266l-102 -121v-145h-90v730h90v-468l223 278h110l-173 -205z" />
    <glyph glyph-name="l" unicode="l" horiz-adv-x="245" 
d="M77 0v730h91v-730h-91z" />
    <glyph glyph-name="m" unicode="m" horiz-adv-x="867" 
d="M655 546q75 0 109 -33t34 -102v-411h-91v408q0 30 -13.5 42.5t-48.5 12.5q-82 0 -163 -53v-410h-92v408q0 30 -13.5 42.5t-47.5 12.5q-50 0 -86 -12.5t-78 -41.5v-409h-91v540h91v-74q42 42 78 61t95 19q117 0 138 -84q40 41 80.5 62.5t98.5 21.5z" />
    <glyph glyph-name="n" unicode="n" horiz-adv-x="568" 
d="M74 0v540h91v-75q42 42 79.5 61t103.5 19q81 0 116.5 -32.5t35.5 -102.5v-410h-92v407q0 31 -14.5 43t-54.5 12q-57 0 -94 -12.5t-80 -41.5v-408h-91z" />
    <glyph glyph-name="o" unicode="o" horiz-adv-x="556" 
d="M196 0q-134 0 -134 134v272q0 134 134 134h164q134 0 134 -134v-272q0 -134 -134 -134h-164zM207 81h141q29 0 41.5 12.5t12.5 41.5v270q0 29 -12.5 41.5t-41.5 12.5h-141q-29 0 -41.5 -12.5t-12.5 -41.5v-270q0 -29 12.5 -41.5t41.5 -12.5z" />
    <glyph glyph-name="p" unicode="p" horiz-adv-x="575" 
d="M74 -160v700h91v-76q42 42 81 61t109 19q85 0 121.5 -32.5t36.5 -104.5v-274q0 -72 -36.5 -104.5t-121.5 -32.5q-70 0 -109 19t-81 61v-236h-91zM345 79q45 0 61 12.5t16 44.5v268q0 32 -16 44.5t-61 12.5q-61 0 -99 -12.5t-81 -41.5v-274q43 -29 81 -41.5t99 -12.5z" />
    <glyph glyph-name="q" unicode="q" horiz-adv-x="575" 
d="M410 -160v236q-42 -42 -81 -61t-109 -19q-85 0 -121.5 32.5t-36.5 104.5v274q0 72 36.5 104.5t121.5 32.5q70 0 109 -19t81 -61v76h91v-700h-91zM230 79q61 0 99 12.5t81 41.5v274q-43 29 -81 41.5t-99 12.5q-45 0 -61 -12.5t-16 -44.5v-268q0 -32 16 -44.5t61 -12.5z
" />
    <glyph glyph-name="r" unicode="r" horiz-adv-x="397" 
d="M74 0v540h91v-80q27 26 45.5 40.5t50.5 27t70 12.5h40v-87h-48q-71 0 -158 -53v-400h-91z" />
    <glyph glyph-name="s" unicode="s" horiz-adv-x="518" 
d="M183 0q-69 0 -101.5 35t-32.5 112v21h89v-23q0 -38 12.5 -53t41.5 -15h132q30 0 42 16.5t12 61.5q0 41 -10.5 54t-40.5 18l-154 25q-63 11 -90 40t-27 95q0 81 32.5 117t101.5 36h132q69 0 101.5 -34t32.5 -107v-18h-89v21q0 34 -12.5 47.5t-41.5 13.5h-112
q-30 0 -42 -15t-12 -55q0 -35 11 -47t40 -17l154 -25q64 -11 90.5 -41t26.5 -102q0 -87 -32 -124t-102 -37h-152z" />
    <glyph glyph-name="t" unicode="t" horiz-adv-x="359" 
d="M239 0q-134 0 -134 134v329h-80v77h81v130h90v-130h129v-77h-128v-330q0 -29 12.5 -41.5t41.5 -12.5h74v-79h-86z" />
    <glyph glyph-name="u" unicode="u" horiz-adv-x="568" 
d="M220 -5q-80 0 -115.5 32.5t-35.5 102.5v410h91v-407q0 -31 15 -43t55 -12q56 0 93 12.5t80 41.5v408h92v-540h-92v75q-42 -42 -79.5 -61t-103.5 -19z" />
    <glyph glyph-name="v" unicode="v" horiz-adv-x="511" 
d="M201 0l-183 540h97l142 -461l142 461h93l-183 -540h-108z" />
    <glyph glyph-name="w" unicode="w" horiz-adv-x="759" 
d="M167 0l-149 540h96l102 -444l122 444h88l122 -444l102 444h91l-145 -540h-98l-116 427l-116 -427h-99z" />
    <glyph glyph-name="x" unicode="x" horiz-adv-x="509" 
d="M17 0l186 273l-184 267h101l136 -200l134 200h95l-182 -268l188 -272h-101l-140 205l-138 -205h-95z" />
    <glyph glyph-name="y" unicode="y" horiz-adv-x="517" 
d="M156 -160l56 160l-194 540h96l144 -435l148 435h93l-256 -700h-87z" />
    <glyph glyph-name="z" unicode="z" horiz-adv-x="466" 
d="M37 0v61l278 402h-266v77h377v-60l-278 -403h278v-77h-389z" />
    <glyph glyph-name="braceleft" unicode="{" horiz-adv-x="413" 
d="M285 -106q-140 0 -140 140v202q0 57 -55 57h-38v83h38q55 0 55 57v191q0 140 140 140h67v-88h-57q-29 0 -41.5 -12.5t-12.5 -42.5v-184q0 -70 -66 -102q66 -31 66 -102v-196q0 -30 12.5 -42.5t41.5 -12.5h57v-88h-67z" />
    <glyph glyph-name="bar" unicode="|" horiz-adv-x="319" 
d="M118 -216v983h83v-983h-83z" />
    <glyph glyph-name="braceright" unicode="}" horiz-adv-x="413" 
d="M62 -106v88h56q30 0 42.5 12.5t12.5 42.5v196q0 71 66 102q-66 31 -66 102v184q0 30 -12.5 42.5t-42.5 12.5h-56v88h67q140 0 140 -140v-191q0 -57 54 -57h39v-83h-39q-54 0 -54 -57v-202q0 -140 -140 -140h-67z" />
    <glyph glyph-name="asciitilde" unicode="~" horiz-adv-x="508" 
d="M343 264q-42 0 -96.5 31t-74.5 31q-30 0 -30 -29v-26h-65v25q0 47 26 73.5t64 26.5q41 0 94 -31t75 -31q29 0 29 29v26h66v-25q0 -47 -25 -73.5t-63 -26.5z" />
    <glyph glyph-name="exclamdown" unicode="&#xa1;" horiz-adv-x="289" 
d="M87 421v119h115v-119h-115zM87 -160l24 487h67l24 -487h-115z" />
    <glyph glyph-name="cent" unicode="&#xa2;" horiz-adv-x="563" 
d="M245 0v99h-39q-140 0 -140 140v228q0 140 140 140h39v93h77v-93h37q140 0 140 -140v-40h-91v41q0 30 -12.5 42.5t-42.5 12.5h-35v-340h35q30 0 42.5 12.5t12.5 42.5v41h91v-40q0 -140 -140 -140h-37v-99h-77zM212 183h37v340h-37q-30 0 -42.5 -12.5t-12.5 -42.5v-230
q0 -30 12.5 -42.5t42.5 -12.5z" />
    <glyph glyph-name="sterling" unicode="&#xa3;" horiz-adv-x="624" 
d="M212 88h353v-88h-531v88h62q11 0 15.5 4.5t4.5 15.5v197h-82v86h82v169q0 140 140 140h165q140 0 140 -140v-81h-96v78q0 30 -12.5 42.5t-42.5 12.5h-144q-29 0 -41.5 -12.5t-12.5 -42.5v-166h192v-86h-192v-217z" />
    <glyph glyph-name="currency" unicode="&#xa4;" horiz-adv-x="605" 
d="M502 278q0 -42 -12 -70l76 -76l-58 -60l-77 77q-30 -11 -69 -11h-119q-39 0 -69 11l-77 -77l-58 60l76 76q-12 28 -12 70v160q0 38 11 68l-75 75l58 60l75 -75q29 12 71 12h119q42 0 71 -12l75 75l58 -60l-75 -75q11 -30 11 -68v-160zM360 219q30 0 42.5 12.5t12.5 41.5
v170q0 29 -12.5 41.5t-42.5 12.5h-115q-30 0 -42.5 -12.5t-12.5 -41.5v-170q0 -29 12.5 -41.5t42.5 -12.5h115z" />
    <glyph glyph-name="yen" unicode="&#xa5;" horiz-adv-x="605" 
d="M593 700l-199 -375h120v-66h-156l-7 -14v-43h163v-66h-163v-136h-96v136h-164v66h164v43l-7 14h-157v66h121l-199 375h104l187 -358l187 358h102z" />
    <glyph glyph-name="brokenbar" unicode="&#xa6;" horiz-adv-x="319" 
d="M118 378v389h83v-389h-83zM118 -216v383h83v-383h-83z" />
    <glyph glyph-name="section" unicode="&#xa7;" horiz-adv-x="536" 
d="M196 -94q-72 0 -106 38t-34 124v10h88v-12q0 -47 12 -63t42 -16h131q31 0 43 16t12 61q0 33 -12 48t-36 19l-157 26q-60 10 -88 42.5t-28 108.5q0 61 11 89t34 47q-21 15 -29.5 34.5t-8.5 62.5q0 84 34 121.5t106 37.5h117q72 0 106 -36.5t34 -118.5v-5h-88v4
q0 45 -12 61t-43 16h-110q-31 0 -43 -15.5t-12 -58.5q0 -33 11.5 -47t35.5 -18l161 -26q58 -9 85.5 -41t27.5 -110q0 -60 -11.5 -89t-32.5 -47q20 -15 28.5 -35t8.5 -65q0 -87 -34 -125t-106 -38h-137zM350 209q23 -4 32 17.5t9 73.5q0 42 -11.5 59t-36.5 21l-153 25
q-20 4 -29 -17t-9 -73q0 -44 11.5 -61t35.5 -21z" />
    <glyph glyph-name="dieresis" unicode="&#xa8;" horiz-adv-x="640" 
d="M179 766v112h101v-112h-101zM360 766v112h101v-112h-101z" />
    <glyph glyph-name="copyright" unicode="&#xa9;" horiz-adv-x="847" 
d="M230 0q-140 0 -140 140v420q0 140 140 140h387q140 0 140 -140v-420q0 -140 -140 -140h-387zM234 61h379q41 0 60 18.5t19 59.5v422q0 41 -19 59.5t-60 18.5h-379q-41 0 -60 -18.5t-19 -59.5v-422q0 -41 19 -59.5t60 -18.5zM365 127q-55 0 -81 25.5t-26 81.5v232
q0 56 26 81.5t81 25.5h116q56 0 82 -26t26 -81v-53h-78v53q0 20 -8 28.5t-29 8.5h-101q-21 0 -29.5 -8.5t-8.5 -28.5v-232q0 -20 8.5 -28.5t29.5 -8.5h101q21 0 29 8.5t8 28.5v53h78v-53q0 -55 -26 -81t-82 -26h-116z" />
    <glyph glyph-name="ordfeminine" unicode="&#xaa;" horiz-adv-x="379" 
d="M152 346q-56 0 -79.5 24t-23.5 82q0 55 23 77.5t73 28.5q55 6 121 8v45q0 32 -32 32h-79q-32 0 -32 -32v-15h-64v14q0 46 21.5 68t68.5 22h91q90 0 90 -90v-261h-64v48q-45 -51 -114 -51zM159 405q62 0 107 35v85l-121 -16q-18 -2 -25 -11.5t-7 -39.5q0 -32 9.5 -42.5
t36.5 -10.5zM57 229v57h273v-57h-273z" />
    <glyph glyph-name="guillemotleft" unicode="&#xab;" horiz-adv-x="454" 
d="M152 144l-128 185v44l128 186h96l-143 -208l143 -207h-96zM326 144l-128 185v44l128 186h96l-143 -208l143 -207h-96z" />
    <glyph glyph-name="registered" unicode="&#xae;" horiz-adv-x="419" 
d="M299 700q64 0 64 -64v-235q0 -64 -64 -64h-180q-64 0 -64 64v235q0 64 64 64h180zM333 400v237q0 34 -34 34h-179q-19 0 -26.5 -8t-7.5 -26v-237q0 -19 7.5 -26.5t26.5 -7.5h179q18 0 26 7.5t8 26.5zM284 541q0 -42 -39 -43l44 -87h-33l-44 87h-46v-87h-31v218h106
q43 0 43 -43v-45zM166 527h72q10 0 13 3t3 12v42q0 10 -3 13t-13 3h-72v-73z" />
    <glyph glyph-name="macron" unicode="&#xaf;" horiz-adv-x="601" 
d="M167 769v78h262v-78h-262z" />
    <glyph glyph-name="degree" unicode="&#xb0;" horiz-adv-x="318" 
d="M110 488q-52 0 -52 52v108q0 52 52 52h96q52 0 52 -52v-108q0 -52 -52 -52h-96zM126 537h64q8 0 11 3t3 11v86q0 8 -3 11t-11 3h-64q-9 0 -12 -3t-3 -11v-86q0 -8 3 -11t12 -3z" />
    <glyph glyph-name="plusminus" unicode="&#xb1;" horiz-adv-x="508" 
d="M214 240v147h-151v81h151v148h80v-148h151v-81h-151v-147h-80zM63 108v80h382v-80h-382z" />
    <glyph glyph-name="uni00B2" unicode="&#xb2;" horiz-adv-x="342" 
d="M35 438v121q0 31 18 45t63 30l96 32q16 6 21.5 10t5.5 13v25q0 18 -5.5 23.5t-23.5 5.5h-72q-18 0 -23.5 -5.5t-5.5 -23.5v-17h-69v23q0 48 21 69t69 21h89q49 0 69.5 -21t20.5 -69v-46q0 -17 -5 -28.5t-18 -20t-24 -13.5t-34 -13l-96 -32q-11 -4 -16 -6.5t-8 -6.5
t-3 -10v-39h206v-67h-276z" />
    <glyph glyph-name="uni00B3" unicode="&#xb3;" horiz-adv-x="344" 
d="M118 438q-49 0 -69.5 24t-20.5 85v3h71v-1q0 -30 5.5 -38t23.5 -8h81q18 0 23.5 8t5.5 39t-5.5 39t-23.5 8h-87v62h83q18 0 23.5 7.5t5.5 35.5t-5.5 35.5t-23.5 7.5h-73q-18 0 -23.5 -7.5t-5.5 -35.5v-4h-70v7q0 58 20.5 81.5t69.5 23.5h91q48 0 69 -23.5t21 -81.5
q0 -59 -37 -77q41 -14 41 -81q0 -61 -20.5 -85t-69.5 -24h-100z" />
    <glyph glyph-name="acute" unicode="&#xb4;" horiz-adv-x="536" 
d="M167 766l90 144h119l-136 -144h-73z" />
    <glyph glyph-name="paragraph" unicode="&#xb6;" horiz-adv-x="755" 
d="M395 0v265h-196q-140 0 -140 140v155q0 140 140 140h466v-700h-96v611h-78v-611h-96z" />
    <glyph glyph-name="periodcentered" unicode="&#xb7;" horiz-adv-x="238" 
d="M60 268v120h118v-120h-118z" />
    <glyph glyph-name="cedilla" unicode="&#xb8;" horiz-adv-x="565" 
d="M170 -147l-43 62h90q20 0 26 6.5t6 24.5v54h78v-55q0 -52 -20 -72t-70 -20h-67z" />
    <glyph glyph-name="uni00B9" unicode="&#xb9;" horiz-adv-x="226" 
d="M102 439v299l-79 -24v59l93 38h56v-372h-70z" />
    <glyph glyph-name="ordmasculine" unicode="&#xba;" horiz-adv-x="381" 
d="M139 349q-90 0 -90 90v171q0 90 90 90h103q90 0 90 -90v-171q0 -90 -90 -90h-103zM146 408h89q32 0 32 32v169q0 32 -32 32h-89q-32 0 -32 -32v-169q0 -32 32 -32zM57 229v57h267v-57h-267z" />
    <glyph glyph-name="guillemotright" unicode="&#xbb;" horiz-adv-x="454" 
d="M32 144l143 207l-143 208h96l128 -186v-44l-128 -185h-96zM206 144l143 207l-143 208h96l128 -186v-44l-128 -185h-96z" />
    <glyph glyph-name="onequarter" unicode="&#xbc;" horiz-adv-x="710" 
d="M76 0l392 707h72l-392 -707h-72zM102 329v299l-79 -24v59l93 38h56v-372h-70zM558 0v77h-193l-13 52l212 243h63v-233h58v-62h-58v-77h-69zM438 139h120v131z" />
    <glyph glyph-name="onehalf" unicode="&#xbd;" horiz-adv-x="732" 
d="M76 0l392 707h72l-392 -707h-72zM102 329v299l-79 -24v59l93 38h56v-372h-70zM425 0v121q0 31 18 45t63 30l96 32q16 6 21.5 10t5.5 13v25q0 18 -5.5 23.5t-23.5 5.5h-72q-18 0 -23.5 -5.5t-5.5 -23.5v-17h-69v23q0 48 21 69t69 21h89q49 0 69.5 -21t20.5 -69v-46
q0 -17 -5 -28.5t-18 -20t-24 -13.5t-34 -13l-96 -32q-11 -4 -16 -6.5t-8 -6.5t-3 -10v-39h206v-67h-276z" />
    <glyph glyph-name="threequarters" unicode="&#xbe;" horiz-adv-x="828" 
d="M194 0l392 707h72l-392 -707h-72zM118 328q-49 0 -69.5 24t-20.5 85v3h71v-1q0 -30 5.5 -38t23.5 -8h81q18 0 23.5 8t5.5 39t-5.5 39t-23.5 8h-87v62h83q18 0 23.5 7.5t5.5 35.5t-5.5 35.5t-23.5 7.5h-73q-18 0 -23.5 -7.5t-5.5 -35.5v-4h-70v7q0 58 20.5 81.5t69.5 23.5
h91q48 0 69 -23.5t21 -81.5q0 -59 -37 -77q41 -14 41 -81q0 -61 -20.5 -85t-69.5 -24h-100zM676 0v77h-193l-13 52l212 243h63v-233h58v-62h-58v-77h-69zM556 139h120v131z" />
    <glyph glyph-name="questiondown" unicode="&#xbf;" horiz-adv-x="559" 
d="M277 419v121h96v-121h-96zM184 -160q-140 0 -140 140v73q0 47 34 78.5t109 70.5l31 16q33 18 46 29.5t13 26.5v69h96v-78q0 -24 -9 -43t-33 -38t-42 -29.5t-60 -33.5l-30 -17q-35 -17 -47 -29.5t-12 -32.5v-59q0 -30 12.5 -42.5t41.5 -12.5h189q30 0 42.5 12.5t12.5 42.5
v70h96v-73q0 -140 -140 -140h-210z" />
    <glyph glyph-name="Agrave" unicode="&#xc0;" horiz-adv-x="660" 
d="M393 766h-74l-135 144h119zM530 0l-64 191h-277l-64 -191h-100l243 700h124l243 -700h-105zM218 279h219l-109 328z" />
    <glyph glyph-name="Aacute" unicode="&#xc1;" horiz-adv-x="660" 
d="M477 910l-136 -144h-73l90 144h119zM530 0l-64 191h-277l-64 -191h-100l243 700h124l243 -700h-105zM218 279h219l-109 328z" />
    <glyph glyph-name="Acircumflex" unicode="&#xc2;" horiz-adv-x="660" 
d="M330 842l-74 -76h-89l119 123h88l119 -123h-89zM530 0l-64 191h-277l-64 -191h-100l243 700h124l243 -700h-105zM218 279h219l-109 328z" />
    <glyph glyph-name="Atilde" unicode="&#xc3;" horiz-adv-x="660" 
d="M232 792v-23h-61v23q0 45 24.5 71t60.5 26q37 0 78.5 -29.5t64.5 -29.5q29 0 29 29v23h62v-23q0 -46 -24 -71.5t-60 -25.5q-37 0 -80.5 29.5t-64.5 29.5q-29 0 -29 -29zM530 0l-64 191h-277l-64 -191h-100l243 700h124l243 -700h-105zM218 279h219l-109 328z" />
    <glyph glyph-name="Adieresis" unicode="&#xc4;" horiz-adv-x="660" 
d="M290 878v-112h-101v112h101zM471 878v-112h-101v112h101zM530 0l-64 191h-277l-64 -191h-100l243 700h124l243 -700h-105zM218 279h219l-109 328z" />
    <glyph glyph-name="Aring" unicode="&#xc5;" horiz-adv-x="660" 
d="M301 766q-32 0 -46 14t-14 46v45q0 32 14 46t46 14h58q32 0 46 -14t14 -46v-45q0 -32 -14 -46t-46 -14h-58zM293 874v-51q0 -10 11 -10h52q11 0 11 10v51q0 7 -2 9t-9 2h-52q-7 0 -9 -2t-2 -9zM530 0l-64 191h-277l-64 -191h-100l243 700h124l243 -700h-105zM218 279h219
l-109 328z" />
    <glyph glyph-name="AE" unicode="&#xc6;" horiz-adv-x="993" 
d="M941 612h-357v-203h297v-88h-297v-233h357v-88h-453v193h-269l-102 -193h-108l379 700h553v-88zM266 281h222v330h-47z" />
    <glyph glyph-name="Ccedilla" unicode="&#xc7;" horiz-adv-x="629" 
d="M569 471h-96v86q0 30 -12.5 42.5t-42.5 12.5h-195q-29 0 -41.5 -12.5t-12.5 -42.5v-414q0 -30 12.5 -42.5t41.5 -12.5h195q30 0 42.5 12.5t12.5 42.5v86h96v-89q0 -140 -140 -140h-57v-55q0 -52 -20 -72t-70 -20h-67l-43 62h90q20 0 26 6.5t6 24.5v54h-81
q-140 0 -140 140v420q0 140 140 140h216q140 0 140 -140v-89z" />
    <glyph glyph-name="Egrave" unicode="&#xc8;" horiz-adv-x="595" 
d="M309 766l-135 144h119l90 -144h-74zM90 0v700h453v-88h-357v-210h297v-88h-297v-226h357v-88h-453z" />
    <glyph glyph-name="Eacute" unicode="&#xc9;" horiz-adv-x="595" 
d="M258 766l90 144h119l-136 -144h-73zM90 0v700h453v-88h-357v-210h297v-88h-297v-226h357v-88h-453z" />
    <glyph glyph-name="Ecircumflex" unicode="&#xca;" horiz-adv-x="595" 
d="M157 766l119 123h88l119 -123h-89l-74 76l-74 -76h-89zM90 0v700h453v-88h-357v-210h297v-88h-297v-226h357v-88h-453z" />
    <glyph glyph-name="Edieresis" unicode="&#xcb;" horiz-adv-x="595" 
d="M179 766v112h101v-112h-101zM360 766v112h101v-112h-101zM90 0v700h453v-88h-357v-210h297v-88h-297v-226h357v-88h-453z" />
    <glyph glyph-name="Igrave" unicode="&#xcc;" horiz-adv-x="277" 
d="M127 766l-135 144h119l90 -144h-74zM90 0v700h96v-700h-96z" />
    <glyph glyph-name="Iacute" unicode="&#xcd;" horiz-adv-x="277" 
d="M76 766l90 144h119l-136 -144h-73zM90 0v700h96v-700h-96z" />
    <glyph glyph-name="Icircumflex" unicode="&#xce;" horiz-adv-x="277" 
d="M-25 766l119 123h88l119 -123h-89l-74 76l-74 -76h-89zM90 0v700h96v-700h-96z" />
    <glyph glyph-name="Idieresis" unicode="&#xcf;" horiz-adv-x="277" 
d="M-3 766v112h101v-112h-101zM178 766v112h101v-112h-101zM90 0v700h96v-700h-96z" />
    <glyph glyph-name="Eth" unicode="&#xd0;" horiz-adv-x="661" 
d="M448 700q140 0 140 -140v-420q0 -140 -140 -140h-360v311h-84v92h84v297h360zM492 143v414q0 30 -12.5 42.5t-42.5 12.5h-253v-209h83v-92h-83v-223h253q30 0 42.5 12.5t12.5 42.5z" />
    <glyph glyph-name="Ntilde" unicode="&#xd1;" horiz-adv-x="710" 
d="M431 762q-37 0 -80.5 29.5t-64.5 29.5q-29 0 -29 -29v-23h-61v23q0 45 24.5 71t60.5 26q37 0 78.5 -29.5t64.5 -29.5q29 0 29 29v23h62v-23q0 -46 -24 -71.5t-60 -25.5zM90 0v700h104l333 -545v545h92v-700h-96l-341 556v-556h-92z" />
    <glyph glyph-name="Ograve" unicode="&#xd2;" horiz-adv-x="658" 
d="M319 766l-135 144h119l90 -144h-74zM213 0q-140 0 -140 140v420q0 140 140 140h233q140 0 140 -140v-420q0 -140 -140 -140h-233zM223 88h212q30 0 42.5 12.5t12.5 42.5v414q0 30 -12.5 42.5t-42.5 12.5h-212q-29 0 -41.5 -12.5t-12.5 -42.5v-414q0 -30 12.5 -42.5
t41.5 -12.5z" />
    <glyph glyph-name="Oacute" unicode="&#xd3;" horiz-adv-x="658" 
d="M268 766l90 144h119l-136 -144h-73zM213 0q-140 0 -140 140v420q0 140 140 140h233q140 0 140 -140v-420q0 -140 -140 -140h-233zM223 88h212q30 0 42.5 12.5t12.5 42.5v414q0 30 -12.5 42.5t-42.5 12.5h-212q-29 0 -41.5 -12.5t-12.5 -42.5v-414q0 -30 12.5 -42.5
t41.5 -12.5z" />
    <glyph glyph-name="Ocircumflex" unicode="&#xd4;" horiz-adv-x="658" 
d="M167 766l119 123h88l119 -123h-89l-74 76l-74 -76h-89zM213 0q-140 0 -140 140v420q0 140 140 140h233q140 0 140 -140v-420q0 -140 -140 -140h-233zM223 88h212q30 0 42.5 12.5t12.5 42.5v414q0 30 -12.5 42.5t-42.5 12.5h-212q-29 0 -41.5 -12.5t-12.5 -42.5v-414
q0 -30 12.5 -42.5t41.5 -12.5z" />
    <glyph glyph-name="Otilde" unicode="&#xd5;" horiz-adv-x="658" 
d="M406 762q-37 0 -80.5 29.5t-64.5 29.5q-29 0 -29 -29v-23h-61v23q0 45 24.5 71t60.5 26q37 0 78.5 -29.5t64.5 -29.5q29 0 29 29v23h62v-23q0 -46 -24 -71.5t-60 -25.5zM213 0q-140 0 -140 140v420q0 140 140 140h233q140 0 140 -140v-420q0 -140 -140 -140h-233zM223 88
h212q30 0 42.5 12.5t12.5 42.5v414q0 30 -12.5 42.5t-42.5 12.5h-212q-29 0 -41.5 -12.5t-12.5 -42.5v-414q0 -30 12.5 -42.5t41.5 -12.5z" />
    <glyph glyph-name="Odieresis" unicode="&#xd6;" horiz-adv-x="658" 
d="M189 766v112h101v-112h-101zM370 766v112h101v-112h-101zM213 0q-140 0 -140 140v420q0 140 140 140h233q140 0 140 -140v-420q0 -140 -140 -140h-233zM223 88h212q30 0 42.5 12.5t12.5 42.5v414q0 30 -12.5 42.5t-42.5 12.5h-212q-29 0 -41.5 -12.5t-12.5 -42.5v-414
q0 -30 12.5 -42.5t41.5 -12.5z" />
    <glyph glyph-name="multiply" unicode="&#xd7;" horiz-adv-x="508" 
d="M434 459l-124 -125l124 -124l-56 -56l-124 124l-123 -125l-56 55l124 125l-124 124l56 56l124 -124l123 125z" />
    <glyph glyph-name="Oslash" unicode="&#xd8;" horiz-adv-x="654" 
d="M514 688q68 -28 68 -128v-420q0 -140 -140 -140h-225l-26 -60h-85l32 74q-65 28 -65 126v420q0 140 140 140h221l26 60h85zM169 143q0 -24 8 -38l219 507h-173q-29 0 -41.5 -12.5t-12.5 -42.5v-414zM486 143v414q0 29 -11 41l-220 -510h176q30 0 42.5 12.5t12.5 42.5z
" />
    <glyph glyph-name="Ugrave" unicode="&#xd9;" horiz-adv-x="663" 
d="M320 766l-135 144h119l90 -144h-74zM221 0q-140 0 -140 140v560h96v-557q0 -30 12.5 -42.5t41.5 -12.5h200q30 0 42.5 12.5t12.5 42.5v557h96v-560q0 -140 -140 -140h-221z" />
    <glyph glyph-name="Uacute" unicode="&#xda;" horiz-adv-x="663" 
d="M269 766l90 144h119l-136 -144h-73zM221 0q-140 0 -140 140v560h96v-557q0 -30 12.5 -42.5t41.5 -12.5h200q30 0 42.5 12.5t12.5 42.5v557h96v-560q0 -140 -140 -140h-221z" />
    <glyph glyph-name="Ucircumflex" unicode="&#xdb;" horiz-adv-x="663" 
d="M168 766l119 123h88l119 -123h-89l-74 76l-74 -76h-89zM221 0q-140 0 -140 140v560h96v-557q0 -30 12.5 -42.5t41.5 -12.5h200q30 0 42.5 12.5t12.5 42.5v557h96v-560q0 -140 -140 -140h-221z" />
    <glyph glyph-name="Udieresis" unicode="&#xdc;" horiz-adv-x="663" 
d="M190 766v112h101v-112h-101zM371 766v112h101v-112h-101zM221 0q-140 0 -140 140v560h96v-557q0 -30 12.5 -42.5t41.5 -12.5h200q30 0 42.5 12.5t12.5 42.5v557h96v-560q0 -140 -140 -140h-221z" />
    <glyph glyph-name="Yacute" unicode="&#xdd;" horiz-adv-x="605" 
d="M242 766l90 144h119l-136 -144h-73zM255 0v245l-242 455h104l187 -357l187 357h102l-242 -455v-245h-96z" />
    <glyph glyph-name="Thorn" unicode="&#xde;" horiz-adv-x="630" 
d="M90 0v700h96v-125h256q140 0 140 -140v-160q0 -140 -140 -140h-256v-135h-96zM186 223h245q55 0 55 54v156q0 54 -55 54h-245v-264z" />
    <glyph glyph-name="germandbls" unicode="&#xdf;" horiz-adv-x="566" 
d="M70 0v596q0 134 134 134h162q71 0 102.5 -41.5t31.5 -149.5q0 -79 -15 -114t-54 -49q42 -12 59.5 -50t17.5 -125q0 -114 -31.5 -157.5t-102.5 -43.5h-139v81h127q31 0 42.5 24t11.5 104q0 79 -11.5 103t-42.5 24h-114v79h106q31 0 42.5 22t11.5 95t-11.5 95t-42.5 22
h-139q-29 0 -41.5 -12.5t-12.5 -41.5v-595h-91z" />
    <glyph glyph-name="agrave" unicode="&#xe0;" horiz-adv-x="550" 
d="M272 606l-135 144h119l90 -144h-74zM205 -4q-82 0 -117.5 37t-35.5 121q0 81 33 115t104 42q113 12 201 15v82q0 29 -12.5 41.5t-41.5 12.5h-121q-29 0 -41.5 -12.5t-12.5 -41.5v-20h-91v18q0 134 134 134h143q134 0 134 -134v-406h-91v77q-34 -42 -74.5 -61.5
t-110.5 -19.5zM215 75q56 0 93 13.5t82 44.5v133l-189 -25q-33 -5 -45.5 -20.5t-12.5 -61.5q0 -49 15 -66.5t57 -17.5z" />
    <glyph glyph-name="aacute" unicode="&#xe1;" horiz-adv-x="550" 
d="M221 606l90 144h119l-136 -144h-73zM205 -4q-82 0 -117.5 37t-35.5 121q0 81 33 115t104 42q113 12 201 15v82q0 29 -12.5 41.5t-41.5 12.5h-121q-29 0 -41.5 -12.5t-12.5 -41.5v-20h-91v18q0 134 134 134h143q134 0 134 -134v-406h-91v77q-34 -42 -74.5 -61.5
t-110.5 -19.5zM215 75q56 0 93 13.5t82 44.5v133l-189 -25q-33 -5 -45.5 -20.5t-12.5 -61.5q0 -49 15 -66.5t57 -17.5z" />
    <glyph glyph-name="acircumflex" unicode="&#xe2;" horiz-adv-x="550" 
d="M120 606l119 123h88l119 -123h-89l-74 76l-74 -76h-89zM205 -4q-82 0 -117.5 37t-35.5 121q0 81 33 115t104 42q113 12 201 15v82q0 29 -12.5 41.5t-41.5 12.5h-121q-29 0 -41.5 -12.5t-12.5 -41.5v-20h-91v18q0 134 134 134h143q134 0 134 -134v-406h-91v77
q-34 -42 -74.5 -61.5t-110.5 -19.5zM215 75q56 0 93 13.5t82 44.5v133l-189 -25q-33 -5 -45.5 -20.5t-12.5 -61.5q0 -49 15 -66.5t57 -17.5z" />
    <glyph glyph-name="atilde" unicode="&#xe3;" horiz-adv-x="550" 
d="M359 602q-37 0 -80.5 29.5t-64.5 29.5q-29 0 -29 -29v-23h-61v23q0 45 24.5 71t60.5 26q37 0 78.5 -29.5t64.5 -29.5q29 0 29 29v23h62v-23q0 -46 -24 -71.5t-60 -25.5zM205 -4q-82 0 -117.5 37t-35.5 121q0 81 33 115t104 42q113 12 201 15v82q0 29 -12.5 41.5
t-41.5 12.5h-121q-29 0 -41.5 -12.5t-12.5 -41.5v-20h-91v18q0 134 134 134h143q134 0 134 -134v-406h-91v77q-34 -42 -74.5 -61.5t-110.5 -19.5zM215 75q56 0 93 13.5t82 44.5v133l-189 -25q-33 -5 -45.5 -20.5t-12.5 -61.5q0 -49 15 -66.5t57 -17.5z" />
    <glyph glyph-name="adieresis" unicode="&#xe4;" horiz-adv-x="550" 
d="M142 606v112h101v-112h-101zM323 606v112h101v-112h-101zM205 -4q-82 0 -117.5 37t-35.5 121q0 81 33 115t104 42q113 12 201 15v82q0 29 -12.5 41.5t-41.5 12.5h-121q-29 0 -41.5 -12.5t-12.5 -41.5v-20h-91v18q0 134 134 134h143q134 0 134 -134v-406h-91v77
q-34 -42 -74.5 -61.5t-110.5 -19.5zM215 75q56 0 93 13.5t82 44.5v133l-189 -25q-33 -5 -45.5 -20.5t-12.5 -61.5q0 -49 15 -66.5t57 -17.5z" />
    <glyph glyph-name="aring" unicode="&#xe5;" horiz-adv-x="550" 
d="M254 606q-32 0 -46 14t-14 46v45q0 32 14 46t46 14h58q32 0 46 -14t14 -46v-45q0 -32 -14 -46t-46 -14h-58zM257 653h52q11 0 11 10v51q0 7 -2 9t-9 2h-52q-7 0 -9 -2t-2 -9v-51q0 -10 11 -10zM205 -4q-82 0 -117.5 37t-35.5 121q0 81 33 115t104 42q113 12 201 15v82
q0 29 -12.5 41.5t-41.5 12.5h-121q-29 0 -41.5 -12.5t-12.5 -41.5v-20h-91v18q0 134 134 134h143q134 0 134 -134v-406h-91v77q-34 -42 -74.5 -61.5t-110.5 -19.5zM215 75q56 0 93 13.5t82 44.5v133l-189 -25q-33 -5 -45.5 -20.5t-12.5 -61.5q0 -49 15 -66.5t57 -17.5z" />
    <glyph glyph-name="ae" unicode="&#xe6;" horiz-adv-x="873" 
d="M205 -4q-82 0 -117.5 37.5t-35.5 121.5q0 80 33 114t104 42q113 12 201 15v82q0 29 -12.5 41.5t-41.5 12.5h-121q-29 0 -41.5 -12.5t-12.5 -41.5v-20h-91v18q0 134 134 134h140q63 0 92 -40q29 40 91 40h154q134 0 134 -134v-158h-334v-117q0 -29 12.5 -41.5t41.5 -12.5
h135q28 0 41 12.5t13 41.5v40h91v-37q0 -134 -134 -134h-157q-107 0 -128 83q-61 -87 -191 -87zM481 316h243v93q0 29 -12.5 41.5t-41.5 12.5h-135q-29 0 -41.5 -12.5t-12.5 -41.5v-93zM215 75q56 0 93 13t82 43v135l-189 -25q-34 -5 -46 -20t-12 -61q0 -49 15 -67t57 -18z
" />
    <glyph glyph-name="ccedilla" unicode="&#xe7;" horiz-adv-x="529" 
d="M478 359h-91v46q0 29 -12.5 41.5t-41.5 12.5h-126q-29 0 -41.5 -12.5t-12.5 -41.5v-270q0 -29 12.5 -41.5t41.5 -12.5h126q29 0 41.5 12.5t12.5 41.5v46h91v-47q0 -134 -134 -134h-25v-55q0 -52 -20 -72t-70 -20h-67l-43 62h90q20 0 26 6.5t6 24.5v54h-45
q-134 0 -134 134v272q0 134 134 134h148q134 0 134 -134v-47z" />
    <glyph glyph-name="egrave" unicode="&#xe8;" horiz-adv-x="545" 
d="M338 606h-74l-135 144h119zM487 248h-334v-117q0 -29 12.5 -41.5t41.5 -12.5h135q28 0 41 12.5t13 41.5v40h91v-37q0 -134 -134 -134h-157q-134 0 -134 134v272q0 134 134 134h157q134 0 134 -134v-158zM207 463q-29 0 -41.5 -12.5t-12.5 -41.5v-93h243v93
q0 29 -12.5 41.5t-41.5 12.5h-135z" />
    <glyph glyph-name="eacute" unicode="&#xe9;" horiz-adv-x="545" 
d="M422 750l-136 -144h-73l90 144h119zM487 248h-334v-117q0 -29 12.5 -41.5t41.5 -12.5h135q28 0 41 12.5t13 41.5v40h91v-37q0 -134 -134 -134h-157q-134 0 -134 134v272q0 134 134 134h157q134 0 134 -134v-158zM207 463q-29 0 -41.5 -12.5t-12.5 -41.5v-93h243v93
q0 29 -12.5 41.5t-41.5 12.5h-135z" />
    <glyph glyph-name="ecircumflex" unicode="&#xea;" horiz-adv-x="545" 
d="M275 682l-74 -76h-89l119 123h88l119 -123h-89zM487 248h-334v-117q0 -29 12.5 -41.5t41.5 -12.5h135q28 0 41 12.5t13 41.5v40h91v-37q0 -134 -134 -134h-157q-134 0 -134 134v272q0 134 134 134h157q134 0 134 -134v-158zM207 463q-29 0 -41.5 -12.5t-12.5 -41.5v-93
h243v93q0 29 -12.5 41.5t-41.5 12.5h-135z" />
    <glyph glyph-name="edieresis" unicode="&#xeb;" horiz-adv-x="545" 
d="M235 718v-112h-101v112h101zM416 718v-112h-101v112h101zM487 248h-334v-117q0 -29 12.5 -41.5t41.5 -12.5h135q28 0 41 12.5t13 41.5v40h91v-37q0 -134 -134 -134h-157q-134 0 -134 134v272q0 134 134 134h157q134 0 134 -134v-158zM207 463q-29 0 -41.5 -12.5
t-12.5 -41.5v-93h243v93q0 29 -12.5 41.5t-41.5 12.5h-135z" />
    <glyph glyph-name="igrave" unicode="&#xec;" horiz-adv-x="247" 
d="M109 593l-135 144h119l90 -144h-74zM78 0v540h91v-540h-91z" />
    <glyph glyph-name="iacute" unicode="&#xed;" horiz-adv-x="247" 
d="M65 593l90 144h119l-136 -144h-73zM78 0v540h91v-540h-91z" />
    <glyph glyph-name="icircumflex" unicode="&#xee;" horiz-adv-x="247" 
d="M-40 593l119 123h88l119 -123h-89l-74 76l-74 -76h-89zM78 0v540h91v-540h-91z" />
    <glyph glyph-name="idieresis" unicode="&#xef;" horiz-adv-x="247" 
d="M-18 599v112h101v-112h-101zM163 599v112h101v-112h-101zM78 0v540h91v-540h-91z" />
    <glyph glyph-name="eth" unicode="&#xf0;" horiz-adv-x="563" 
d="M364 656q74 -19 105.5 -49t31.5 -92v-381q0 -134 -134 -134h-171q-134 0 -134 134v229q0 72 36.5 104.5t121.5 32.5q70 0 109 -19t81 -61v99q1 28 -13 40.5t-48 23.5l-59 19l-53 -52h-85l74 73l-95 30v63l150 -39l50 49h85l-67 -66zM410 135v228q-43 29 -81 41.5
t-99 12.5q-45 0 -61 -12.5t-16 -44.5v-225q0 -29 12.5 -41.5t41.5 -12.5h149q29 0 41.5 12.5t12.5 41.5z" />
    <glyph glyph-name="ntilde" unicode="&#xf1;" horiz-adv-x="568" 
d="M362 602q-37 0 -80.5 29.5t-64.5 29.5q-29 0 -29 -29v-23h-61v23q0 45 24.5 71t60.5 26q37 0 78.5 -29.5t64.5 -29.5q29 0 29 29v23h62v-23q0 -46 -24 -71.5t-60 -25.5zM74 0v540h91v-75q42 42 79.5 61t103.5 19q81 0 116.5 -32.5t35.5 -102.5v-410h-92v407
q0 31 -14.5 43t-54.5 12q-57 0 -94 -12.5t-80 -41.5v-408h-91z" />
    <glyph glyph-name="ograve" unicode="&#xf2;" horiz-adv-x="556" 
d="M268 606l-135 144h119l90 -144h-74zM196 0q-134 0 -134 134v272q0 134 134 134h164q134 0 134 -134v-272q0 -134 -134 -134h-164zM207 81h141q29 0 41.5 12.5t12.5 41.5v270q0 29 -12.5 41.5t-41.5 12.5h-141q-29 0 -41.5 -12.5t-12.5 -41.5v-270q0 -29 12.5 -41.5
t41.5 -12.5z" />
    <glyph glyph-name="oacute" unicode="&#xf3;" horiz-adv-x="556" 
d="M217 606l90 144h119l-136 -144h-73zM196 0q-134 0 -134 134v272q0 134 134 134h164q134 0 134 -134v-272q0 -134 -134 -134h-164zM207 81h141q29 0 41.5 12.5t12.5 41.5v270q0 29 -12.5 41.5t-41.5 12.5h-141q-29 0 -41.5 -12.5t-12.5 -41.5v-270q0 -29 12.5 -41.5
t41.5 -12.5z" />
    <glyph glyph-name="ocircumflex" unicode="&#xf4;" horiz-adv-x="556" 
d="M116 606l119 123h88l119 -123h-89l-74 76l-74 -76h-89zM196 0q-134 0 -134 134v272q0 134 134 134h164q134 0 134 -134v-272q0 -134 -134 -134h-164zM207 81h141q29 0 41.5 12.5t12.5 41.5v270q0 29 -12.5 41.5t-41.5 12.5h-141q-29 0 -41.5 -12.5t-12.5 -41.5v-270
q0 -29 12.5 -41.5t41.5 -12.5z" />
    <glyph glyph-name="otilde" unicode="&#xf5;" horiz-adv-x="556" 
d="M355 602q-37 0 -80.5 29.5t-64.5 29.5q-29 0 -29 -29v-23h-61v23q0 45 24.5 71t60.5 26q37 0 78.5 -29.5t64.5 -29.5q29 0 29 29v23h62v-23q0 -46 -24 -71.5t-60 -25.5zM196 0q-134 0 -134 134v272q0 134 134 134h164q134 0 134 -134v-272q0 -134 -134 -134h-164zM207 81
h141q29 0 41.5 12.5t12.5 41.5v270q0 29 -12.5 41.5t-41.5 12.5h-141q-29 0 -41.5 -12.5t-12.5 -41.5v-270q0 -29 12.5 -41.5t41.5 -12.5z" />
    <glyph glyph-name="odieresis" unicode="&#xf6;" horiz-adv-x="556" 
d="M138 606v112h101v-112h-101zM319 606v112h101v-112h-101zM196 0q-134 0 -134 134v272q0 134 134 134h164q134 0 134 -134v-272q0 -134 -134 -134h-164zM207 81h141q29 0 41.5 12.5t12.5 41.5v270q0 29 -12.5 41.5t-41.5 12.5h-141q-29 0 -41.5 -12.5t-12.5 -41.5v-270
q0 -29 12.5 -41.5t41.5 -12.5z" />
    <glyph glyph-name="divide" unicode="&#xf7;" horiz-adv-x="508" 
d="M203 483v109h102v-109h-102zM56 320v86h396v-86h-396zM203 134v110h102v-110h-102z" />
    <glyph glyph-name="oslash" unicode="&#xf8;" horiz-adv-x="553" 
d="M420 531q71 -27 71 -125v-272q0 -134 -134 -134h-151l-24 -60h-74l28 69q-74 24 -74 125v272q0 134 134 134h153l24 60h75zM153 135q0 -31 16 -44l147 368h-109q-29 0 -41.5 -12.5t-12.5 -41.5v-270zM400 135v270q0 29 -14 42l-147 -366h107q28 0 41 12.5t13 41.5z" />
    <glyph glyph-name="ugrave" unicode="&#xf9;" horiz-adv-x="568" 
d="M268 606l-135 144h119l90 -144h-74zM220 -5q-80 0 -115.5 32.5t-35.5 102.5v410h91v-407q0 -31 15 -43t55 -12q56 0 93 12.5t80 41.5v408h92v-540h-92v75q-42 -42 -79.5 -61t-103.5 -19z" />
    <glyph glyph-name="uacute" unicode="&#xfa;" horiz-adv-x="568" 
d="M217 606l90 144h119l-136 -144h-73zM220 -5q-80 0 -115.5 32.5t-35.5 102.5v410h91v-407q0 -31 15 -43t55 -12q56 0 93 12.5t80 41.5v408h92v-540h-92v75q-42 -42 -79.5 -61t-103.5 -19z" />
    <glyph glyph-name="ucircumflex" unicode="&#xfb;" horiz-adv-x="568" 
d="M116 606l119 123h88l119 -123h-89l-74 76l-74 -76h-89zM220 -5q-80 0 -115.5 32.5t-35.5 102.5v410h91v-407q0 -31 15 -43t55 -12q56 0 93 12.5t80 41.5v408h92v-540h-92v75q-42 -42 -79.5 -61t-103.5 -19z" />
    <glyph glyph-name="udieresis" unicode="&#xfc;" horiz-adv-x="568" 
d="M138 606v112h101v-112h-101zM319 606v112h101v-112h-101zM220 -5q-80 0 -115.5 32.5t-35.5 102.5v410h91v-407q0 -31 15 -43t55 -12q56 0 93 12.5t80 41.5v408h92v-540h-92v75q-42 -42 -79.5 -61t-103.5 -19z" />
    <glyph glyph-name="yacute" unicode="&#xfd;" horiz-adv-x="517" 
d="M201 606l90 144h119l-136 -144h-73zM156 -160l56 160l-194 540h96l144 -435l148 435h93l-256 -700h-87z" />
    <glyph glyph-name="thorn" unicode="&#xfe;" horiz-adv-x="575" 
d="M74 -160v890h91v-266q42 42 81 61t109 19q85 0 121.5 -32.5t36.5 -104.5v-274q0 -72 -36.5 -104.5t-121.5 -32.5q-70 0 -109 19t-81 61v-236h-91zM345 79q45 0 61 12.5t16 44.5v268q0 32 -16 44.5t-61 12.5q-61 0 -99 -12.5t-81 -41.5v-274q43 -29 81 -41.5t99 -12.5z
" />
    <glyph glyph-name="ydieresis" unicode="&#xff;" horiz-adv-x="517" 
d="M122 606v112h101v-112h-101zM303 606v112h101v-112h-101zM156 -160l56 160l-194 540h96l144 -435l148 435h93l-256 -700h-87z" />
    <glyph glyph-name="Amacron" unicode="&#x100;" horiz-adv-x="660" 
d="M458 847v-78h-262v78h262zM530 0l-64 191h-277l-64 -191h-100l243 700h124l243 -700h-105zM218 279h219l-109 328z" />
    <glyph glyph-name="amacron" unicode="&#x101;" horiz-adv-x="550" 
d="M149 609v78h262v-78h-262zM205 -4q-82 0 -117.5 37t-35.5 121q0 81 33 115t104 42q113 12 201 15v82q0 29 -12.5 41.5t-41.5 12.5h-121q-29 0 -41.5 -12.5t-12.5 -41.5v-20h-91v18q0 134 134 134h143q134 0 134 -134v-406h-91v77q-34 -42 -74.5 -61.5t-110.5 -19.5z
M215 75q56 0 93 13.5t82 44.5v133l-189 -25q-33 -5 -45.5 -20.5t-12.5 -61.5q0 -49 15 -66.5t57 -17.5z" />
    <glyph glyph-name="Abreve" unicode="&#x102;" horiz-adv-x="660" 
d="M294 766q-70 0 -70 69v53h63v-48q0 -10 3.5 -14t14.5 -4h50q11 0 14.5 4t3.5 14v48h63v-53q0 -69 -70 -69h-72zM530 0l-64 191h-277l-64 -191h-100l243 700h124l243 -700h-105zM218 279h219l-109 328z" />
    <glyph glyph-name="abreve" unicode="&#x103;" horiz-adv-x="550" 
d="M247 606q-70 0 -70 69v53h63v-48q0 -10 4 -14t14 -4h50q10 0 14 4t4 14v48h63v-53q0 -69 -70 -69h-72zM205 -4q-82 0 -117.5 37t-35.5 121q0 81 33 115t104 42q113 12 201 15v82q0 29 -12.5 41.5t-41.5 12.5h-121q-29 0 -41.5 -12.5t-12.5 -41.5v-20h-91v18
q0 134 134 134h143q134 0 134 -134v-406h-91v77q-34 -42 -74.5 -61.5t-110.5 -19.5zM215 75q56 0 93 13.5t82 44.5v133l-189 -25q-33 -5 -45.5 -20.5t-12.5 -61.5q0 -49 15 -66.5t57 -17.5z" />
    <glyph glyph-name="Aogonek" unicode="&#x104;" horiz-adv-x="660" 
d="M585 -110h82v-61h-100q-48 0 -66.5 25.5t9.5 72.5l49 73h-29l-64 191h-277l-64 -191h-100l243 700h124l243 -700l-59 -90q-13 -20 9 -20zM218 279h219l-109 328z" />
    <glyph glyph-name="aogonek" unicode="&#x105;" horiz-adv-x="550" 
d="M431 -110h82v-61h-100q-48 0 -66.5 25.5t9.5 72.5l49 73h-15v77q-34 -42 -74.5 -61.5t-110.5 -19.5q-82 0 -117.5 37t-35.5 121q0 81 33 115t104 42q113 12 201 15v82q0 29 -12.5 41.5t-41.5 12.5h-121q-29 0 -41.5 -12.5t-12.5 -41.5v-20h-91v18q0 134 134 134h143
q134 0 134 -134v-406l-59 -90q-13 -20 9 -20zM390 133v133l-189 -25q-33 -5 -45.5 -20.5t-12.5 -61.5q0 -49 15 -66.5t57 -17.5q56 0 93 13.5t82 44.5z" />
    <glyph glyph-name="Cacute" unicode="&#x106;" horiz-adv-x="629" 
d="M262 766l90 144h119l-136 -144h-73zM213 0q-140 0 -140 140v420q0 140 140 140h216q140 0 140 -140v-89h-96v86q0 30 -12.5 42.5t-42.5 12.5h-195q-29 0 -41.5 -12.5t-12.5 -42.5v-414q0 -30 12.5 -42.5t41.5 -12.5h195q30 0 42.5 12.5t12.5 42.5v86h96v-89
q0 -140 -140 -140h-216z" />
    <glyph glyph-name="cacute" unicode="&#x107;" horiz-adv-x="529" 
d="M211 606l90 144h119l-136 -144h-73zM196 0q-134 0 -134 134v272q0 134 134 134h148q134 0 134 -134v-47h-91v46q0 29 -12.5 41.5t-41.5 12.5h-126q-29 0 -41.5 -12.5t-12.5 -41.5v-270q0 -29 12.5 -41.5t41.5 -12.5h126q29 0 41.5 12.5t12.5 41.5v46h91v-47
q0 -134 -134 -134h-148z" />
    <glyph glyph-name="Cdotaccent" unicode="&#x10a;" horiz-adv-x="629" 
d="M273 766v108h102v-108h-102zM213 0q-140 0 -140 140v420q0 140 140 140h216q140 0 140 -140v-89h-96v86q0 30 -12.5 42.5t-42.5 12.5h-195q-29 0 -41.5 -12.5t-12.5 -42.5v-414q0 -30 12.5 -42.5t41.5 -12.5h195q30 0 42.5 12.5t12.5 42.5v86h96v-89q0 -140 -140 -140
h-216z" />
    <glyph glyph-name="cdotaccent" unicode="&#x10b;" horiz-adv-x="529" 
d="M222 606v108h102v-108h-102zM196 0q-134 0 -134 134v272q0 134 134 134h148q134 0 134 -134v-47h-91v46q0 29 -12.5 41.5t-41.5 12.5h-126q-29 0 -41.5 -12.5t-12.5 -41.5v-270q0 -29 12.5 -41.5t41.5 -12.5h126q29 0 41.5 12.5t12.5 41.5v46h91v-47q0 -134 -134 -134
h-148z" />
    <glyph glyph-name="Ccaron" unicode="&#x10c;" horiz-adv-x="629" 
d="M280 766l-119 123h89l74 -75l74 75h89l-119 -123h-88zM213 0q-140 0 -140 140v420q0 140 140 140h216q140 0 140 -140v-89h-96v86q0 30 -12.5 42.5t-42.5 12.5h-195q-29 0 -41.5 -12.5t-12.5 -42.5v-414q0 -30 12.5 -42.5t41.5 -12.5h195q30 0 42.5 12.5t12.5 42.5v86h96
v-89q0 -140 -140 -140h-216z" />
    <glyph glyph-name="ccaron" unicode="&#x10d;" horiz-adv-x="529" 
d="M229 606l-119 123h89l74 -75l74 75h89l-119 -123h-88zM196 0q-134 0 -134 134v272q0 134 134 134h148q134 0 134 -134v-47h-91v46q0 29 -12.5 41.5t-41.5 12.5h-126q-29 0 -41.5 -12.5t-12.5 -41.5v-270q0 -29 12.5 -41.5t41.5 -12.5h126q29 0 41.5 12.5t12.5 41.5v46h91
v-47q0 -134 -134 -134h-148z" />
    <glyph glyph-name="Dcaron" unicode="&#x10e;" horiz-adv-x="663" 
d="M291 766l-119 123h89l74 -75l74 75h89l-119 -123h-88zM90 0v700h361q140 0 140 -140v-420q0 -140 -140 -140h-361zM186 88h254q30 0 42.5 12.5t12.5 42.5v414q0 30 -12.5 42.5t-42.5 12.5h-254v-524z" />
    <glyph glyph-name="dcaron" unicode="&#x10f;" horiz-adv-x="575" 
d="M220 -4q-85 0 -121.5 32.5t-36.5 104.5v274q0 72 36.5 104.5t121.5 32.5q70 0 109 -19t81 -61v266h91v-730h-91v76q-42 -42 -81 -61t-109 -19zM547 481l68 127h-52v120h117v-85q0 -26 -7.5 -43t-33.5 -55l-47 -64h-45zM230 79q61 0 99 12.5t81 41.5v274q-43 29 -81 41.5
t-99 12.5q-45 0 -61 -12.5t-16 -44.5v-268q0 -32 16 -44.5t61 -12.5z" />
    <glyph glyph-name="Dcroat" unicode="&#x110;" horiz-adv-x="661" 
d="M448 700q140 0 140 -140v-420q0 -140 -140 -140h-360v311h-84v92h84v297h360zM492 143v414q0 30 -12.5 42.5t-42.5 12.5h-253v-209h83v-92h-83v-223h253q30 0 42.5 12.5t12.5 42.5z" />
    <glyph glyph-name="dcroat" unicode="&#x111;" horiz-adv-x="575" 
d="M554 650v-65h-53v-585h-91v76q-42 -42 -81 -61t-109 -19q-85 0 -121.5 32.5t-36.5 104.5v274q0 72 36.5 104.5t121.5 32.5q70 0 109 -19t81 -61v121h-103v65h103v80h91v-80h53zM410 133v274q-43 29 -81 41.5t-99 12.5q-45 0 -61 -12.5t-16 -44.5v-268q0 -32 16 -44.5
t61 -12.5q61 0 99 12.5t81 41.5z" />
    <glyph glyph-name="Emacron" unicode="&#x112;" horiz-adv-x="595" 
d="M186 769v78h262v-78h-262zM90 0v700h453v-88h-357v-210h297v-88h-297v-226h357v-88h-453z" />
    <glyph glyph-name="emacron" unicode="&#x113;" horiz-adv-x="545" 
d="M403 687v-78h-262v78h262zM487 248h-334v-117q0 -29 12.5 -41.5t41.5 -12.5h135q28 0 41 12.5t13 41.5v40h91v-37q0 -134 -134 -134h-157q-134 0 -134 134v272q0 134 134 134h157q134 0 134 -134v-158zM207 463q-29 0 -41.5 -12.5t-12.5 -41.5v-93h243v93
q0 29 -12.5 41.5t-41.5 12.5h-135z" />
    <glyph glyph-name="Edotaccent" unicode="&#x116;" horiz-adv-x="595" 
d="M269 766v108h102v-108h-102zM90 0v700h453v-88h-357v-210h297v-88h-297v-226h357v-88h-453z" />
    <glyph glyph-name="edotaccent" unicode="&#x117;" horiz-adv-x="545" 
d="M326 714v-108h-102v108h102zM487 248h-334v-117q0 -29 12.5 -41.5t41.5 -12.5h135q28 0 41 12.5t13 41.5v40h91v-37q0 -134 -134 -134h-157q-134 0 -134 134v272q0 134 134 134h157q134 0 134 -134v-158zM207 463q-29 0 -41.5 -12.5t-12.5 -41.5v-93h243v93
q0 29 -12.5 41.5t-41.5 12.5h-135z" />
    <glyph glyph-name="Eogonek" unicode="&#x118;" horiz-adv-x="595" 
d="M493 -110h82v-61h-100q-48 0 -66.5 25.5t9.5 72.5l49 73h-377v700h453v-88h-357v-210h297v-88h-297v-226h357v-88l-59 -90q-13 -20 9 -20z" />
    <glyph glyph-name="eogonek" unicode="&#x119;" horiz-adv-x="545" 
d="M487 248h-334v-117q0 -29 12.5 -41.5t41.5 -12.5h135q28 0 41 12.5t13 41.5v40h91v-37q0 -134 -134 -134h-32l-59 -90q-13 -20 9 -20h82v-61h-100q-48 0 -66.5 25.5t9.5 72.5l49 73h-49q-134 0 -134 134v272q0 134 134 134h157q134 0 134 -134v-158zM207 463
q-29 0 -41.5 -12.5t-12.5 -41.5v-93h243v93q0 29 -12.5 41.5t-41.5 12.5h-135z" />
    <glyph glyph-name="Ecaron" unicode="&#x11a;" horiz-adv-x="595" 
d="M276 766l-119 123h89l74 -75l74 75h89l-119 -123h-88zM90 0v700h453v-88h-357v-210h297v-88h-297v-226h357v-88h-453z" />
    <glyph glyph-name="ecaron" unicode="&#x11b;" horiz-adv-x="545" 
d="M319 606h-88l-119 123h89l74 -75l74 75h89zM487 248h-334v-117q0 -29 12.5 -41.5t41.5 -12.5h135q28 0 41 12.5t13 41.5v40h91v-37q0 -134 -134 -134h-157q-134 0 -134 134v272q0 134 134 134h157q134 0 134 -134v-158zM207 463q-29 0 -41.5 -12.5t-12.5 -41.5v-93h243
v93q0 29 -12.5 41.5t-41.5 12.5h-135z" />
    <glyph glyph-name="Gbreve" unicode="&#x11e;" horiz-adv-x="647" 
d="M289 766q-70 0 -70 69v53h63v-48q0 -10 4 -14t14 -4h50q10 0 14 4t4 14v48h63v-53q0 -69 -70 -69h-72zM213 0q-140 0 -140 140v420q0 140 140 140h223q140 0 140 -140v-75h-96v72q0 30 -12.5 42.5t-41.5 12.5h-203q-29 0 -41.5 -12.5t-12.5 -42.5v-414q0 -30 12.5 -42.5
t41.5 -12.5h203q29 0 41.5 12.5t12.5 42.5v142h-166v86h262v-231q0 -140 -140 -140h-223z" />
    <glyph glyph-name="gbreve" unicode="&#x11f;" horiz-adv-x="575" 
d="M255 606q-70 0 -70 69v53h63v-48q0 -10 4 -14t14 -4h50q10 0 14 4t4 14v48h63v-53q0 -69 -70 -69h-72zM124 -160v77h232q29 0 41.5 12.5t12.5 41.5v122q-28 -28 -48 -42.5t-56.5 -26t-85.5 -11.5q-85 0 -121.5 33t-36.5 105v256q0 72 36.5 104.5t121.5 32.5q70 0 109 -19
t81 -61v76h91v-566q0 -134 -134 -134h-243zM230 96q60 0 98 12.5t82 41.5v257q-43 29 -81 41.5t-99 12.5q-45 0 -61 -12t-16 -42v-257q0 -30 16 -42t61 -12z" />
    <glyph glyph-name="Gdotaccent" unicode="&#x120;" horiz-adv-x="647" 
d="M274 766v108h102v-108h-102zM213 0q-140 0 -140 140v420q0 140 140 140h223q140 0 140 -140v-75h-96v72q0 30 -12.5 42.5t-41.5 12.5h-203q-29 0 -41.5 -12.5t-12.5 -42.5v-414q0 -30 12.5 -42.5t41.5 -12.5h203q29 0 41.5 12.5t12.5 42.5v142h-166v86h262v-231
q0 -140 -140 -140h-223z" />
    <glyph glyph-name="gdotaccent" unicode="&#x121;" horiz-adv-x="575" 
d="M240 606v108h102v-108h-102zM124 -160v77h232q29 0 41.5 12.5t12.5 41.5v122q-28 -28 -48 -42.5t-56.5 -26t-85.5 -11.5q-85 0 -121.5 33t-36.5 105v256q0 72 36.5 104.5t121.5 32.5q70 0 109 -19t81 -61v76h91v-566q0 -134 -134 -134h-243zM230 96q60 0 98 12.5t82 41.5
v257q-43 29 -81 41.5t-99 12.5q-45 0 -61 -12t-16 -42v-257q0 -30 16 -42t61 -12z" />
    <glyph glyph-name="Gcommaaccent" unicode="&#x122;" horiz-adv-x="647" 
d="M213 0q-140 0 -140 140v420q0 140 140 140h223q140 0 140 -140v-75h-96v72q0 30 -12.5 42.5t-41.5 12.5h-203q-29 0 -41.5 -12.5t-12.5 -42.5v-414q0 -30 12.5 -42.5t41.5 -12.5h203q29 0 41.5 12.5t12.5 42.5v142h-166v86h262v-231q0 -140 -140 -140h-223zM250 -311
l66 127h-44v114h105v-89q0 -7 -2 -15.5t-8 -19.5t-9 -17t-11.5 -20t-9.5 -16l-39 -64h-48z" />
    <glyph glyph-name="gcommaaccent" unicode="&#x123;" horiz-adv-x="575" 
d="M366 851l-66 -127h44v-114h-105v89q0 21 40 88l39 64h48zM124 -160v77h232q29 0 41.5 12.5t12.5 41.5v122q-28 -28 -48 -42.5t-56.5 -26t-85.5 -11.5q-85 0 -121.5 33t-36.5 105v256q0 72 36.5 104.5t121.5 32.5q70 0 109 -19t81 -61v76h91v-566q0 -134 -134 -134h-243z
M230 96q60 0 98 12.5t82 41.5v257q-43 29 -81 41.5t-99 12.5q-45 0 -61 -12t-16 -42v-257q0 -30 16 -42t61 -12z" />
    <glyph glyph-name="Hbar" unicode="&#x126;" horiz-adv-x="695" 
d="M667 596v-70h-64v-526h-96v325h-320v-325h-96v526h-63v70h63v111h96v-111h320v111h96v-111h64zM507 413v113h-320v-113h320z" />
    <glyph glyph-name="hbar" unicode="&#x127;" horiz-adv-x="568" 
d="M348 545q81 0 116.5 -32.5t35.5 -102.5v-410h-92v407q0 31 -14.5 43t-54.5 12q-57 0 -94 -12.5t-80 -41.5v-408h-91v585h-53v65h53v80h91v-80h103v-65h-103v-120q42 42 79.5 61t103.5 19z" />
    <glyph glyph-name="Imacron" unicode="&#x12a;" horiz-adv-x="277" 
d="M4 769v78h262v-78h-262zM90 0v700h96v-700h-96z" />
    <glyph glyph-name="imacron" unicode="&#x12b;" horiz-adv-x="247" 
d="M-8 612v78h262v-78h-262zM78 0v540h91v-540h-91z" />
    <glyph glyph-name="Iogonek" unicode="&#x12e;" horiz-adv-x="277" 
d="M136 -110h82v-61h-100q-48 0 -66.5 25.5t9.5 72.5l49 73h-20v700h96v-700l-59 -90q-13 -20 9 -20z" />
    <glyph glyph-name="iogonek" unicode="&#x12f;" horiz-adv-x="247" 
d="M174 717v-102h-101v102h101zM119 -110h82v-61h-100q-48 0 -66.5 25.5t9.5 72.5l49 73h-15v540h91v-540l-59 -90q-13 -20 9 -20z" />
    <glyph glyph-name="Idotaccent" unicode="&#x130;" horiz-adv-x="277" 
d="M87 766v108h102v-108h-102zM90 0v700h96v-700h-96z" />
    <glyph glyph-name="IJ" unicode="&#x132;" horiz-adv-x="846" 
d="M90 0v700h96v-700h-96zM453 0q-140 0 -140 140v127h96v-124q0 -30 12.5 -42.5t41.5 -12.5h151q30 0 42.5 12.5t12.5 42.5v557h96v-560q0 -140 -140 -140h-172z" />
    <glyph glyph-name="ij" unicode="&#x133;" horiz-adv-x="510" 
d="M73 615v102h101v-102h-101zM336 615v102h101v-102h-101zM78 0v540h91v-540h-91zM230 -171v64l58 25q53 20 53 58v564h91v-563q0 -61 -32 -90.5t-102 -43.5z" />
    <glyph glyph-name="Kcommaaccent" unicode="&#x136;" horiz-adv-x="643" 
d="M384 420l259 -420h-110l-213 345l-134 -156v-189h-96v700h96v-383l323 383h115zM283 -184v114h105v-89q0 -7 -2 -15.5t-8 -19.5t-9 -17t-11.5 -20t-9.5 -16l-39 -64h-48l66 127h-44z" />
    <glyph glyph-name="kcommaaccent" unicode="&#x137;" horiz-adv-x="526" 
d="M324 335l187 -335h-100l-145 266l-102 -121v-145h-90v730h90v-468l223 278h110zM219 -184v114h105v-89q0 -7 -2 -15.5t-8 -19.5t-9 -17t-11.5 -20t-9.5 -16l-39 -64h-48l66 127h-44z" />
    <glyph glyph-name="Lacute" unicode="&#x139;" horiz-adv-x="554" 
d="M76 766l90 144h119l-136 -144h-73zM90 0v700h96v-612h332v-88h-428z" />
    <glyph glyph-name="lacute" unicode="&#x13a;" horiz-adv-x="245" 
d="M61 796l90 144h119l-136 -144h-73zM77 0v730h91v-730h-91z" />
    <glyph glyph-name="Lcommaaccent" unicode="&#x13b;" horiz-adv-x="554" 
d="M90 0v700h96v-612h332v-88h-428zM236 -311l66 127h-44v114h105v-89q0 -7 -2 -15.5t-8 -19.5t-9 -17t-11.5 -20t-9.5 -16l-39 -64h-48z" />
    <glyph glyph-name="lcommaaccent" unicode="&#x13c;" horiz-adv-x="245" 
d="M77 0v730h91v-730h-91zM48 -311l66 127h-44v114h105v-89q0 -7 -2 -15.5t-8 -19.5t-9 -17t-11.5 -20t-9.5 -16l-39 -64h-48z" />
    <glyph glyph-name="Lcaron" unicode="&#x13d;" horiz-adv-x="554" 
d="M265 459l68 127h-52v120h117v-85q0 -26 -7.5 -43t-33.5 -55l-47 -64h-45zM90 0v700h96v-612h332v-88h-428z" />
    <glyph glyph-name="lcaron" unicode="&#x13e;" horiz-adv-x="356" 
d="M77 0v730h91v-730h-91zM219 489l65 127h-44v114h106v-89q0 -7 -2.5 -16t-7.5 -19t-9 -17t-11.5 -19.5t-10.5 -16.5l-39 -64h-47z" />
    <glyph glyph-name="Ldot" unicode="&#x13f;" horiz-adv-x="554" 
d="M90 0v700h96v-612h332v-88h-428zM350 313v120h118v-120h-118z" />
    <glyph glyph-name="ldot" unicode="&#x140;" horiz-adv-x="370" 
d="M77 0v730h91v-730h-91zM250 338v114h106v-114h-106z" />
    <glyph glyph-name="Lslash" unicode="&#x141;" horiz-adv-x="554" 
d="M186 88h332v-88h-428v325l-66 -26v90l66 26v305h96v-267l132 53v-90l-132 -53v-275z" />
    <glyph glyph-name="lslash" unicode="&#x142;" horiz-adv-x="309" 
d="M298 497v-90l-98 -40v-367h-91v329l-98 -40v91l98 40v310h91v-273z" />
    <glyph glyph-name="Nacute" unicode="&#x143;" horiz-adv-x="710" 
d="M293 766l90 144h119l-136 -144h-73zM90 0v700h104l333 -545v545h92v-700h-96l-341 556v-556h-92z" />
    <glyph glyph-name="nacute" unicode="&#x144;" horiz-adv-x="568" 
d="M224 606l90 144h119l-136 -144h-73zM74 0v540h91v-75q42 42 79.5 61t103.5 19q81 0 116.5 -32.5t35.5 -102.5v-410h-92v407q0 31 -14.5 43t-54.5 12q-57 0 -94 -12.5t-80 -41.5v-408h-91z" />
    <glyph glyph-name="Ncommaaccent" unicode="&#x145;" horiz-adv-x="710" 
d="M90 0v700h104l333 -545v545h92v-700h-96l-341 556v-556h-92zM280 -311l66 127h-44v114h105v-89q0 -7 -2 -15.5t-8 -19.5t-9 -17t-11.5 -20t-9.5 -16l-39 -64h-48z" />
    <glyph glyph-name="ncommaaccent" unicode="&#x146;" horiz-adv-x="568" 
d="M74 0v540h91v-75q42 42 79.5 61t103.5 19q81 0 116.5 -32.5t35.5 -102.5v-410h-92v407q0 31 -14.5 43t-54.5 12q-57 0 -94 -12.5t-80 -41.5v-408h-91zM210 -311l66 127h-44v114h105v-89q0 -7 -2 -15.5t-8 -19.5t-9 -17t-11.5 -20t-9.5 -16l-39 -64h-48z" />
    <glyph glyph-name="Ncaron" unicode="&#x147;" horiz-adv-x="710" 
d="M311 766l-119 123h89l74 -75l74 75h89l-119 -123h-88zM90 0v700h104l333 -545v545h92v-700h-96l-341 556v-556h-92z" />
    <glyph glyph-name="ncaron" unicode="&#x148;" horiz-adv-x="568" 
d="M242 606l-119 123h89l74 -75l74 75h89l-119 -123h-88zM74 0v540h91v-75q42 42 79.5 61t103.5 19q81 0 116.5 -32.5t35.5 -102.5v-410h-92v407q0 31 -14.5 43t-54.5 12q-57 0 -94 -12.5t-80 -41.5v-408h-91z" />
    <glyph glyph-name="Eng" unicode="&#x14a;" horiz-adv-x="709" 
d="M393 -160v84h85q29 0 41.5 12.5t12.5 42.5v10l-353 569v-558h-89v700h101l339 -540v540h89v-720q0 -140 -140 -140h-86z" />
    <glyph glyph-name="eng" unicode="&#x14b;" horiz-adv-x="568" 
d="M288 -160v81h68q52 0 52 53v433q0 31 -14.5 43t-54.5 12q-57 0 -94 -12.5t-80 -41.5v-408h-91v540h91v-75q42 42 79.5 61t103.5 19q81 0 116.5 -32.5t35.5 -102.5v-436q0 -65 -34.5 -99.5t-99.5 -34.5h-78z" />
    <glyph glyph-name="Omacron" unicode="&#x14c;" horiz-adv-x="658" 
d="M196 769v78h262v-78h-262zM213 0q-140 0 -140 140v420q0 140 140 140h233q140 0 140 -140v-420q0 -140 -140 -140h-233zM223 88h212q30 0 42.5 12.5t12.5 42.5v414q0 30 -12.5 42.5t-42.5 12.5h-212q-29 0 -41.5 -12.5t-12.5 -42.5v-414q0 -30 12.5 -42.5t41.5 -12.5z
" />
    <glyph glyph-name="omacron" unicode="&#x14d;" horiz-adv-x="556" 
d="M145 609v78h262v-78h-262zM196 0q-134 0 -134 134v272q0 134 134 134h164q134 0 134 -134v-272q0 -134 -134 -134h-164zM207 81h141q29 0 41.5 12.5t12.5 41.5v270q0 29 -12.5 41.5t-41.5 12.5h-141q-29 0 -41.5 -12.5t-12.5 -41.5v-270q0 -29 12.5 -41.5t41.5 -12.5z
" />
    <glyph glyph-name="Ohungarumlaut" unicode="&#x150;" horiz-adv-x="658" 
d="M176 766l115 145h92l-115 -145h-92zM337 766l115 145h92l-115 -145h-92zM213 0q-140 0 -140 140v420q0 140 140 140h233q140 0 140 -140v-420q0 -140 -140 -140h-233zM223 88h212q30 0 42.5 12.5t12.5 42.5v414q0 30 -12.5 42.5t-42.5 12.5h-212q-29 0 -41.5 -12.5
t-12.5 -42.5v-414q0 -30 12.5 -42.5t41.5 -12.5z" />
    <glyph glyph-name="ohungarumlaut" unicode="&#x151;" horiz-adv-x="556" 
d="M125 606l115 145h92l-115 -145h-92zM286 606l115 145h92l-115 -145h-92zM196 0q-134 0 -134 134v272q0 134 134 134h164q134 0 134 -134v-272q0 -134 -134 -134h-164zM207 81h141q29 0 41.5 12.5t12.5 41.5v270q0 29 -12.5 41.5t-41.5 12.5h-141q-29 0 -41.5 -12.5
t-12.5 -41.5v-270q0 -29 12.5 -41.5t41.5 -12.5z" />
    <glyph glyph-name="OE" unicode="&#x152;" horiz-adv-x="991" 
d="M213 0q-140 0 -140 140v420q0 140 140 140h725v-88h-356v-210h297v-88h-297v-226h356v-88h-725zM223 88h263v524h-263q-29 0 -41.5 -12.5t-12.5 -42.5v-414q0 -30 12.5 -42.5t41.5 -12.5z" />
    <glyph glyph-name="oe" unicode="&#x153;" horiz-adv-x="885" 
d="M196 0q-134 0 -134 134v272q0 134 134 134h160q63 0 92 -40q29 40 92 40h153q134 0 134 -134v-158h-333v-117q0 -29 12.5 -41.5t41.5 -12.5h134q29 0 41.5 12.5t12.5 41.5v40h91v-37q0 -134 -134 -134h-153q-63 0 -92 40q-29 -40 -92 -40h-160zM494 316h242v93
q0 29 -12.5 41.5t-41.5 12.5h-134q-29 0 -41.5 -12.5t-12.5 -41.5v-93zM207 81h141q29 0 41.5 12.5t12.5 41.5v270q0 29 -12.5 41.5t-41.5 12.5h-141q-29 0 -41.5 -12.5t-12.5 -41.5v-270q0 -29 12.5 -41.5t41.5 -12.5z" />
    <glyph glyph-name="Racute" unicode="&#x154;" horiz-adv-x="654" 
d="M472 910l-136 -144h-73l90 144h119zM460 277l143 -277h-105l-143 275h-169v-275h-96v700h351q140 0 140 -140v-144q0 -130 -121 -139zM186 362h244q30 0 42.5 12.5t12.5 41.5v142q0 30 -12.5 42.5t-42.5 12.5h-244v-251z" />
    <glyph glyph-name="racute" unicode="&#x155;" horiz-adv-x="397" 
d="M154 606l90 144h119l-136 -144h-73zM74 0v540h91v-80q27 26 45.5 40.5t50.5 27t70 12.5h40v-87h-48q-71 0 -158 -53v-400h-91z" />
    <glyph glyph-name="Rcommaaccent" unicode="&#x156;" horiz-adv-x="654" 
d="M460 277l143 -277h-105l-143 275h-169v-275h-96v700h351q140 0 140 -140v-144q0 -130 -121 -139zM186 362h244q30 0 42.5 12.5t12.5 41.5v142q0 30 -12.5 42.5t-42.5 12.5h-244v-251zM279 -184v114h105v-89q0 -7 -2 -15.5t-8 -19.5t-9 -17t-11.5 -20t-9.5 -16l-39 -64
h-48l66 127h-44z" />
    <glyph glyph-name="rcommaaccent" unicode="&#x157;" horiz-adv-x="397" 
d="M74 0v540h91v-80q27 26 45.5 40.5t50.5 27t70 12.5h40v-87h-48q-71 0 -158 -53v-400h-91zM44 -311l66 127h-44v114h105v-89q0 -7 -2 -15.5t-8 -19.5t-9 -17t-11.5 -20t-9.5 -16l-39 -64h-48z" />
    <glyph glyph-name="Rcaron" unicode="&#x158;" horiz-adv-x="654" 
d="M369 766h-88l-119 123h89l74 -75l74 75h89zM460 277l143 -277h-105l-143 275h-169v-275h-96v700h351q140 0 140 -140v-144q0 -130 -121 -139zM186 362h244q30 0 42.5 12.5t12.5 41.5v142q0 30 -12.5 42.5t-42.5 12.5h-244v-251z" />
    <glyph glyph-name="rcaron" unicode="&#x159;" horiz-adv-x="397" 
d="M172 606l-119 123h89l74 -75l74 75h89l-119 -123h-88zM74 0v540h91v-80q27 26 45.5 40.5t50.5 27t70 12.5h40v-87h-48q-71 0 -158 -53v-400h-91z" />
    <glyph glyph-name="Sacute" unicode="&#x15a;" horiz-adv-x="623" 
d="M249 766l90 144h119l-136 -144h-73zM205 0q-140 0 -140 140v77h94v-78q0 -29 12.5 -41.5t42.5 -12.5h194q30 0 42.5 12.5t12.5 41.5v84q0 31 -13.5 44.5t-46.5 21.5l-192 43q-72 16 -108 45t-36 98v85q0 140 140 140h201q140 0 140 -140v-69h-95v70q0 29 -12.5 41.5
t-41.5 12.5h-182q-29 0 -41.5 -12.5t-12.5 -41.5v-73q0 -31 13.5 -44.5t45.5 -20.5l193 -44q72 -16 108 -45.5t36 -97.5v-96q0 -140 -140 -140h-214z" />
    <glyph glyph-name="sacute" unicode="&#x15b;" horiz-adv-x="518" 
d="M196 606l90 144h119l-136 -144h-73zM183 0q-69 0 -101.5 35t-32.5 112v21h89v-23q0 -38 12.5 -53t41.5 -15h132q30 0 42 16.5t12 61.5q0 41 -10.5 54t-40.5 18l-154 25q-63 11 -90 40t-27 95q0 81 32.5 117t101.5 36h132q69 0 101.5 -34t32.5 -107v-18h-89v21
q0 34 -12.5 47.5t-41.5 13.5h-112q-30 0 -42 -15t-12 -55q0 -35 11 -47t40 -17l154 -25q64 -11 90.5 -41t26.5 -102q0 -87 -32 -124t-102 -37h-152z" />
    <glyph glyph-name="Scedilla" unicode="&#x15e;" horiz-adv-x="623" 
d="M415 379q72 -16 108 -45.5t36 -97.5v-96q0 -140 -140 -140h-49v-55q0 -52 -20 -72t-70 -20h-67l-43 62h90q20 0 26 6.5t6 24.5v54h-87q-140 0 -140 140v77h94v-78q0 -29 12.5 -41.5t42.5 -12.5h194q30 0 42.5 12.5t12.5 41.5v84q0 31 -13.5 44.5t-46.5 21.5l-192 43
q-72 16 -108 45t-36 98v85q0 140 140 140h201q140 0 140 -140v-69h-95v70q0 29 -12.5 41.5t-41.5 12.5h-182q-29 0 -41.5 -12.5t-12.5 -41.5v-73q0 -31 13.5 -44.5t45.5 -20.5z" />
    <glyph glyph-name="scedilla" unicode="&#x15f;" horiz-adv-x="518" 
d="M352 304q64 -11 90.5 -41t26.5 -102q0 -87 -32 -124t-102 -37h-22v-55q0 -52 -20 -72t-70 -20h-67l-43 62h90q20 0 26 6.5t6 24.5v54h-52q-69 0 -101.5 35t-32.5 112v21h89v-23q0 -38 12.5 -53t41.5 -15h132q30 0 42 16.5t12 61.5q0 41 -10.5 54t-40.5 18l-154 25
q-63 11 -90 40t-27 95q0 81 32.5 117t101.5 36h132q69 0 101.5 -34t32.5 -107v-18h-89v21q0 34 -12.5 47.5t-41.5 13.5h-112q-30 0 -42 -15t-12 -55q0 -35 11 -47t40 -17z" />
    <glyph glyph-name="Scaron" unicode="&#x160;" horiz-adv-x="623" 
d="M267 766l-119 123h89l74 -75l74 75h89l-119 -123h-88zM205 0q-140 0 -140 140v77h94v-78q0 -29 12.5 -41.5t42.5 -12.5h194q30 0 42.5 12.5t12.5 41.5v84q0 31 -13.5 44.5t-46.5 21.5l-192 43q-72 16 -108 45t-36 98v85q0 140 140 140h201q140 0 140 -140v-69h-95v70
q0 29 -12.5 41.5t-41.5 12.5h-182q-29 0 -41.5 -12.5t-12.5 -41.5v-73q0 -31 13.5 -44.5t45.5 -20.5l193 -44q72 -16 108 -45.5t36 -97.5v-96q0 -140 -140 -140h-214z" />
    <glyph glyph-name="scaron" unicode="&#x161;" horiz-adv-x="518" 
d="M214 606l-119 123h89l74 -75l74 75h89l-119 -123h-88zM183 0q-69 0 -101.5 35t-32.5 112v21h89v-23q0 -38 12.5 -53t41.5 -15h132q30 0 42 16.5t12 61.5q0 41 -10.5 54t-40.5 18l-154 25q-63 11 -90 40t-27 95q0 81 32.5 117t101.5 36h132q69 0 101.5 -34t32.5 -107v-18
h-89v21q0 34 -12.5 47.5t-41.5 13.5h-112q-30 0 -42 -15t-12 -55q0 -35 11 -47t40 -17l154 -25q64 -11 90.5 -41t26.5 -102q0 -87 -32 -124t-102 -37h-152z" />
    <glyph glyph-name="uni0162" unicode="&#x162;" horiz-adv-x="569" 
d="M539 613h-207v-613h1v-55q0 -52 -20 -72t-70 -20h-67l-43 62h90q20 0 26 6.5t6 24.5v54h-19v613h-206v87h509v-87z" />
    <glyph glyph-name="uni0163" unicode="&#x163;" horiz-adv-x="359" 
d="M325 0h1v-55q0 -52 -20 -72t-70 -20h-67l-43 62h90q20 0 26 6.5t6 24.5v54h-9q-134 0 -134 134v329h-80v77h81v130h90v-130h129v-77h-128v-330q0 -29 12.5 -41.5t41.5 -12.5h74v-79z" />
    <glyph glyph-name="Tcaron" unicode="&#x164;" horiz-adv-x="569" 
d="M240 766l-119 123h89l74 -75l74 75h89l-119 -123h-88zM236 0v613h-206v87h509v-87h-207v-613h-96z" />
    <glyph glyph-name="tcaron" unicode="&#x165;" horiz-adv-x="359" 
d="M245 583l68 127h-52v120h117v-85q0 -26 -7.5 -43t-33.5 -55l-47 -64h-45zM239 0q-134 0 -134 134v329h-80v77h81v130h90v-130h129v-77h-128v-330q0 -29 12.5 -41.5t41.5 -12.5h74v-79h-86z" />
    <glyph glyph-name="Tbar" unicode="&#x166;" horiz-adv-x="569" 
d="M150 769v78h262v-78h-262zM236 0v613h-206v87h509v-87h-207v-613h-96z" />
    <glyph glyph-name="tbar" unicode="&#x167;" horiz-adv-x="359" 
d="M325 463h-128v-125h107v-78h-107v-127q0 -29 12.5 -41.5t41.5 -12.5h74v-79h-86q-134 0 -134 134v126h-63v78h63v125h-80v77h81v130h90v-130h129v-77z" />
    <glyph glyph-name="Umacron" unicode="&#x16a;" horiz-adv-x="663" 
d="M197 769v78h262v-78h-262zM221 0q-140 0 -140 140v560h96v-557q0 -30 12.5 -42.5t41.5 -12.5h200q30 0 42.5 12.5t12.5 42.5v557h96v-560q0 -140 -140 -140h-221z" />
    <glyph glyph-name="umacron" unicode="&#x16b;" horiz-adv-x="568" 
d="M145 609v78h262v-78h-262zM220 -5q-80 0 -115.5 32.5t-35.5 102.5v410h91v-407q0 -31 15 -43t55 -12q56 0 93 12.5t80 41.5v408h92v-540h-92v75q-42 -42 -79.5 -61t-103.5 -19z" />
    <glyph glyph-name="Uring" unicode="&#x16e;" horiz-adv-x="663" 
d="M302 766q-32 0 -46 14t-14 46v45q0 32 14 46t46 14h58q32 0 46 -14t14 -46v-45q0 -32 -14 -46t-46 -14h-58zM305 813h52q11 0 11 10v51q0 7 -2 9t-9 2h-52q-7 0 -9 -2t-2 -9v-51q0 -10 11 -10zM221 0q-140 0 -140 140v560h96v-557q0 -30 12.5 -42.5t41.5 -12.5h200
q30 0 42.5 12.5t12.5 42.5v557h96v-560q0 -140 -140 -140h-221z" />
    <glyph glyph-name="uring" unicode="&#x16f;" horiz-adv-x="568" 
d="M250 606q-32 0 -46 14t-14 46v45q0 32 14 46t46 14h58q32 0 46 -14t14 -46v-45q0 -32 -14 -46t-46 -14h-58zM253 653h52q11 0 11 10v51q0 7 -2 9t-9 2h-52q-7 0 -9 -2t-2 -9v-51q0 -10 11 -10zM220 -5q-80 0 -115.5 32.5t-35.5 102.5v410h91v-407q0 -31 15 -43t55 -12
q56 0 93 12.5t80 41.5v408h92v-540h-92v75q-42 -42 -79.5 -61t-103.5 -19z" />
    <glyph glyph-name="Uhungarumlaut" unicode="&#x170;" horiz-adv-x="663" 
d="M177 766l115 145h92l-115 -145h-92zM338 766l115 145h92l-115 -145h-92zM221 0q-140 0 -140 140v560h96v-557q0 -30 12.5 -42.5t41.5 -12.5h200q30 0 42.5 12.5t12.5 42.5v557h96v-560q0 -140 -140 -140h-221z" />
    <glyph glyph-name="uhungarumlaut" unicode="&#x171;" horiz-adv-x="568" 
d="M125 606l115 145h92l-115 -145h-92zM286 606l115 145h92l-115 -145h-92zM220 -5q-80 0 -115.5 32.5t-35.5 102.5v410h91v-407q0 -31 15 -43t55 -12q56 0 93 12.5t80 41.5v408h92v-540h-92v75q-42 -42 -79.5 -61t-103.5 -19z" />
    <glyph glyph-name="Uogonek" unicode="&#x172;" horiz-adv-x="663" 
d="M486 700h96v-560q0 -140 -140 -140h-60l-59 -90q-13 -20 9 -20h82v-61h-100q-48 0 -66.5 25.5t9.5 72.5l49 73h-85q-140 0 -140 140v560h96v-557q0 -30 12.5 -42.5t41.5 -12.5h200q30 0 42.5 12.5t12.5 42.5v557z" />
    <glyph glyph-name="uogonek" unicode="&#x173;" horiz-adv-x="568" 
d="M445 -110h82v-61h-100q-48 0 -66.5 25.5t9.5 72.5l49 73h-16v75q-42 -42 -79.5 -61t-103.5 -19q-80 0 -115.5 32.5t-35.5 102.5v410h91v-407q0 -31 15 -43t55 -12q56 0 93 12.5t80 41.5v408h92v-540l-59 -90q-13 -20 9 -20z" />
    <glyph glyph-name="Wcircumflex" unicode="&#x174;" horiz-adv-x="919" 
d="M298 766l119 123h88l119 -123h-89l-74 76l-74 -76h-89zM210 0l-184 700h102l136 -577l155 577h84l155 -577l136 577h99l-185 -700h-101l-146 543l-146 -543h-105z" />
    <glyph glyph-name="wcircumflex" unicode="&#x175;" horiz-adv-x="759" 
d="M219 606l119 123h88l119 -123h-89l-74 76l-74 -76h-89zM167 0l-149 540h96l102 -444l122 444h88l122 -444l102 444h91l-145 -540h-98l-116 427l-116 -427h-99z" />
    <glyph glyph-name="Ycircumflex" unicode="&#x176;" horiz-adv-x="605" 
d="M141 766l119 123h88l119 -123h-89l-74 76l-74 -76h-89zM255 0v245l-242 455h104l187 -357l187 357h102l-242 -455v-245h-96z" />
    <glyph glyph-name="ycircumflex" unicode="&#x177;" horiz-adv-x="517" 
d="M100 606l119 123h88l119 -123h-89l-74 76l-74 -76h-89zM156 -160l56 160l-194 540h96l144 -435l148 435h93l-256 -700h-87z" />
    <glyph glyph-name="Ydieresis" unicode="&#x178;" horiz-adv-x="605" 
d="M163 766v112h101v-112h-101zM344 766v112h101v-112h-101zM255 0v245l-242 455h104l187 -357l187 357h102l-242 -455v-245h-96z" />
    <glyph glyph-name="Zacute" unicode="&#x179;" horiz-adv-x="597" 
d="M247 766l90 144h119l-136 -144h-73zM55 0v71l371 543h-354v86h470v-71l-371 -543h369v-86h-485z" />
    <glyph glyph-name="zacute" unicode="&#x17a;" horiz-adv-x="466" 
d="M179 606l90 144h119l-136 -144h-73zM37 0v61l278 402h-266v77h377v-60l-278 -403h278v-77h-389z" />
    <glyph glyph-name="Zdotaccent" unicode="&#x17b;" horiz-adv-x="597" 
d="M258 766v108h102v-108h-102zM55 0v71l371 543h-354v86h470v-71l-371 -543h369v-86h-485z" />
    <glyph glyph-name="zdotaccent" unicode="&#x17c;" horiz-adv-x="466" 
d="M190 606v108h102v-108h-102zM37 0v61l278 402h-266v77h377v-60l-278 -403h278v-77h-389z" />
    <glyph glyph-name="Zcaron" unicode="&#x17d;" horiz-adv-x="597" 
d="M265 766l-119 123h89l74 -75l74 75h89l-119 -123h-88zM55 0v71l371 543h-354v86h470v-71l-371 -543h369v-86h-485z" />
    <glyph glyph-name="zcaron" unicode="&#x17e;" horiz-adv-x="466" 
d="M197 606l-119 123h89l74 -75l74 75h89l-119 -123h-88zM37 0v61l278 402h-266v77h377v-60l-278 -403h278v-77h-389z" />
    <glyph glyph-name="florin" unicode="&#x192;" horiz-adv-x="425" 
d="M34 0v88h63q30 0 42.5 12.5t12.5 42.5v210h-111v83h111v124q0 140 140 140h99v-88h-89q-29 0 -41.5 -12.5t-12.5 -42.5v-121h133v-83h-133v-213q0 -140 -140 -140h-74z" />
    <glyph glyph-name="circumflex" unicode="&#x2c6;" horiz-adv-x="660" 
d="M167 766l119 123h88l119 -123h-89l-74 76l-74 -76h-89z" />
    <glyph glyph-name="caron" unicode="&#x2c7;" horiz-adv-x="660" 
d="M286 766l-119 123h89l74 -75l74 75h89l-119 -123h-88z" />
    <glyph glyph-name="breve" unicode="&#x2d8;" horiz-adv-x="618" 
d="M273 766q-70 0 -70 69v53h63v-48q0 -10 4 -14t14 -4h50q10 0 14 4t4 14v48h63v-53q0 -69 -70 -69h-72z" />
    <glyph glyph-name="dotaccent" unicode="&#x2d9;" horiz-adv-x="458" 
d="M178 766v108h102v-108h-102z" />
    <glyph glyph-name="ring" unicode="&#x2da;" horiz-adv-x="344" 
d="M143 766q-32 0 -46 14t-14 46v45q0 32 14 46t46 14h58q32 0 46 -14t14 -46v-45q0 -32 -14 -46t-46 -14h-58zM146 813h52q11 0 11 10v51q0 7 -2 9t-9 2h-52q-7 0 -9 -2t-2 -9v-51q0 -10 11 -10z" />
    <glyph glyph-name="ogonek" unicode="&#x2db;" horiz-adv-x="387" 
d="M179 -171q-48 0 -66.5 25.5t9.5 72.5l49 73h76l-59 -90q-13 -20 9 -20h82v-61h-100z" />
    <glyph glyph-name="tilde" unicode="&#x2dc;" horiz-adv-x="610" 
d="M380 762q-37 0 -80.5 29.5t-64.5 29.5q-29 0 -29 -29v-23h-61v23q0 45 24.5 71t60.5 26q37 0 78.5 -29.5t64.5 -29.5q29 0 29 29v23h62v-23q0 -46 -24 -71.5t-60 -25.5z" />
    <glyph glyph-name="hungarumlaut" unicode="&#x2dd;" horiz-adv-x="750" 
d="M191 766l115 145h92l-115 -145h-92zM352 766l115 145h92l-115 -145h-92z" />
    <glyph glyph-name="uni0326" unicode="&#x326;" horiz-adv-x="0" 
d="M-231 -311l66 127h-44v114h105v-89q0 -7 -2 -15.5t-8 -19.5t-9 -17t-11.5 -20t-9.5 -16l-39 -64h-48z" />
    <glyph glyph-name="Wgrave" unicode="&#x1e80;" horiz-adv-x="919" 
d="M450 766l-135 144h119l90 -144h-74zM210 0l-184 700h102l136 -577l155 577h84l155 -577l136 577h99l-185 -700h-101l-146 543l-146 -543h-105z" />
    <glyph glyph-name="wgrave" unicode="&#x1e81;" horiz-adv-x="759" 
d="M371 606l-135 144h119l90 -144h-74zM167 0l-149 540h96l102 -444l122 444h88l122 -444l102 444h91l-145 -540h-98l-116 427l-116 -427h-99z" />
    <glyph glyph-name="Wacute" unicode="&#x1e82;" horiz-adv-x="919" 
d="M399 766l90 144h119l-136 -144h-73zM210 0l-184 700h102l136 -577l155 577h84l155 -577l136 577h99l-185 -700h-101l-146 543l-146 -543h-105z" />
    <glyph glyph-name="wacute" unicode="&#x1e83;" horiz-adv-x="759" 
d="M320 606l90 144h119l-136 -144h-73zM167 0l-149 540h96l102 -444l122 444h88l122 -444l102 444h91l-145 -540h-98l-116 427l-116 -427h-99z" />
    <glyph glyph-name="Wdieresis" unicode="&#x1e84;" horiz-adv-x="919" 
d="M320 766v112h101v-112h-101zM501 766v112h101v-112h-101zM210 0l-184 700h102l136 -577l155 577h84l155 -577l136 577h99l-185 -700h-101l-146 543l-146 -543h-105z" />
    <glyph glyph-name="wdieresis" unicode="&#x1e85;" horiz-adv-x="759" 
d="M241 606v112h101v-112h-101zM422 606v112h101v-112h-101zM167 0l-149 540h96l102 -444l122 444h88l122 -444l102 444h91l-145 -540h-98l-116 427l-116 -427h-99z" />
    <glyph glyph-name="Ygrave" unicode="&#x1ef2;" horiz-adv-x="605" 
d="M293 766l-135 144h119l90 -144h-74zM255 0v245l-242 455h104l187 -357l187 357h102l-242 -455v-245h-96z" />
    <glyph glyph-name="ygrave" unicode="&#x1ef3;" horiz-adv-x="517" 
d="M252 606l-135 144h119l90 -144h-74zM156 -160l56 160l-194 540h96l144 -435l148 435h93l-256 -700h-87z" />
    <glyph glyph-name="endash" unicode="&#x2013;" horiz-adv-x="559" 
d="M60 286v88h440v-88h-440z" />
    <glyph glyph-name="emdash" unicode="&#x2014;" horiz-adv-x="809" 
d="M60 286v87h689v-87h-689z" />
    <glyph glyph-name="quoteleft" unicode="&#x2018;" horiz-adv-x="233" 
d="M58 453v86q0 26 7.5 43.5t32.5 53.5l47 64h46l-68 -127h52v-120h-117z" />
    <glyph glyph-name="quoteright" unicode="&#x2019;" horiz-adv-x="233" 
d="M42 453l68 127h-52v120h117v-85q0 -26 -7.5 -43t-33.5 -55l-47 -64h-45z" />
    <glyph glyph-name="quotesinglbase" unicode="&#x201a;" horiz-adv-x="233" 
d="M42 -127l68 127h-52v120h117v-85q0 -26 -7.5 -43t-33.5 -55l-47 -64h-45z" />
    <glyph glyph-name="quotedblleft" unicode="&#x201c;" horiz-adv-x="401" 
d="M58 453v86q0 26 7.5 43.5t32.5 53.5l47 64h46l-68 -127h52v-120h-117zM226 453v86q0 25 7.5 42.5t33.5 54.5l47 64h45l-67 -127h52v-120h-118z" />
    <glyph glyph-name="quotedblright" unicode="&#x201d;" horiz-adv-x="401" 
d="M42 453l68 127h-52v120h117v-85q0 -26 -7.5 -43t-33.5 -55l-47 -64h-45zM211 453l67 127h-52v120h118v-85q0 -26 -7.5 -43t-33.5 -55l-47 -64h-45z" />
    <glyph glyph-name="quotedblbase" unicode="&#x201e;" horiz-adv-x="401" 
d="M42 -127l68 127h-52v120h117v-85q0 -26 -7.5 -43t-33.5 -55l-47 -64h-45zM211 -127l67 127h-52v120h118v-85q0 -26 -7.5 -43t-33.5 -55l-47 -64h-45z" />
    <glyph glyph-name="dagger" unicode="&#x2020;" horiz-adv-x="374" 
d="M341 520v-80h-111v-440h-86v440h-111v80h111v180h86v-180h111z" />
    <glyph glyph-name="daggerdbl" unicode="&#x2021;" horiz-adv-x="374" 
d="M341 440h-111v-173h111v-80h-111v-187h-86v187h-111v80h111v173h-111v80h111v180h86v-180h111v-80z" />
    <glyph glyph-name="bullet" unicode="&#x2022;" horiz-adv-x="428" 
d="M214 263q-55 0 -77 22t-22 77t22 77t77 22t77 -22t22 -77t-22 -77t-77 -22z" />
    <glyph glyph-name="ellipsis" unicode="&#x2026;" horiz-adv-x="659" 
d="M58 0v120h117v-120h-117zM271 0v120h117v-120h-117zM484 0v120h118v-120h-118z" />
    <glyph glyph-name="perthousand" unicode="&#x2030;" horiz-adv-x="897" 
d="M118 424q-37 0 -54 17t-17 54v134q0 37 16.5 54t54.5 17h79q37 0 54 -17t17 -54v-134q0 -37 -17 -54t-54 -17h-79zM95 0l361 700h79l-362 -700h-78zM129 480h57q13 0 17.5 4.5t4.5 17.5v120q0 13 -4.5 17.5t-17.5 4.5h-57q-13 0 -17.5 -4.5t-4.5 -17.5v-120
q0 -13 4.5 -17.5t17.5 -4.5zM433 0q-37 0 -54.5 17t-17.5 54v134q0 37 17 54t55 17h78q38 0 55 -17t17 -54v-134q0 -37 -17 -54t-55 -17h-78zM701 0q-37 0 -54.5 17t-17.5 54v134q0 37 17 54t55 17h78q38 0 55 -17t17 -54v-134q0 -37 -17 -54t-55 -17h-78zM444 56h56
q13 0 17.5 4.5t4.5 17.5v120q0 13 -4.5 17.5t-17.5 4.5h-56q-13 0 -17.5 -4.5t-4.5 -17.5v-120q0 -13 4.5 -17.5t17.5 -4.5zM712 56h56q13 0 17.5 4.5t4.5 17.5v120q0 13 -4.5 17.5t-17.5 4.5h-56q-13 0 -17.5 -4.5t-4.5 -17.5v-120q0 -13 4.5 -17.5t17.5 -4.5z" />
    <glyph glyph-name="guilsinglleft" unicode="&#x2039;" horiz-adv-x="279" 
d="M152 144l-128 185v44l128 186h96l-143 -208l143 -207h-96z" />
    <glyph glyph-name="guilsinglright" unicode="&#x203a;" horiz-adv-x="279" 
d="M32 144l143 207l-143 208h96l128 -186v-44l-128 -185h-96z" />
    <glyph glyph-name="fraction" unicode="&#x2044;" horiz-adv-x="164" 
d="M-150 0l392 707h72l-392 -707h-72z" />
    <glyph glyph-name="uni2070" unicode="&#x2070;" horiz-adv-x="361" 
d="M128 438q-48 0 -69 21t-21 69v192q0 47 21.5 68.5t68.5 21.5h105q48 0 69 -21t21 -69v-192q0 -47 -21 -68.5t-69 -21.5h-105zM138 505h85q18 0 23.5 5.5t5.5 23.5v180q0 18 -5.5 23.5t-23.5 5.5h-85q-18 0 -23.5 -5.5t-5.5 -23.5v-180q0 -18 5.5 -23.5t23.5 -5.5z" />
    <glyph glyph-name="uni2074" unicode="&#x2074;" horiz-adv-x="380" 
d="M228 438v77h-193l-13 52l212 243h63v-233h58v-62h-58v-77h-69zM108 577h120v131z" />
    <glyph glyph-name="uni2075" unicode="&#x2075;" horiz-adv-x="347" 
d="M124 438q-47 0 -68.5 21t-21.5 69v21h71v-15q0 -18 5.5 -23.5t23.5 -5.5h81q18 0 23.5 5.5t5.5 23.5v56q0 18 -5.5 23.5t-23.5 5.5q-62 0 -106 -20l-70 21v190h265v-67h-195v-102q21 21 45 30.5t70 9.5q48 0 69 -20.5t21 -69.5v-63q0 -47 -21 -68.5t-69 -21.5h-100z" />
    <glyph glyph-name="uni2076" unicode="&#x2076;" horiz-adv-x="354" 
d="M128 438q-48 0 -69 21t-21 69v192q0 48 21 69t69 21h95q49 0 69.5 -21t20.5 -69v-16h-70v10q0 18 -5.5 23.5t-23.5 5.5h-76q-18 0 -23.5 -5.5t-5.5 -23.5v-83q21 21 45.5 30.5t73.5 9.5q48 0 69 -20.5t21 -69.5v-53q0 -48 -21 -69t-69 -21h-100zM138 505h81
q18 0 23.5 5.5t5.5 23.5v47q0 18 -5.5 24t-23.5 6q-68 0 -110 -20v-57q0 -18 5.5 -23.5t23.5 -5.5z" />
    <glyph glyph-name="uni2077" unicode="&#x2077;" horiz-adv-x="327" 
d="M36 438l184 305h-201v67h286v-53l-192 -319h-77z" />
    <glyph glyph-name="uni2078" unicode="&#x2078;" horiz-adv-x="355" 
d="M125 438q-49 0 -69.5 24t-20.5 85q0 67 41 81q-36 18 -36 77q0 58 20.5 81.5t69.5 23.5h95q49 0 69.5 -23.5t20.5 -81.5q0 -59 -37 -77q41 -14 41 -81q0 -61 -20.5 -85t-69.5 -24h-104zM139 659h76q19 0 24.5 7.5t5.5 35.5t-5.5 35.5t-24.5 7.5h-76q-18 0 -23.5 -7.5
t-5.5 -35.5t5.5 -35.5t23.5 -7.5zM135 503h85q18 0 23.5 8t5.5 39t-5.5 39t-23.5 8h-85q-18 0 -23.5 -8t-5.5 -39t5.5 -39t23.5 -8z" />
    <glyph glyph-name="uni2079" unicode="&#x2079;" horiz-adv-x="354" 
d="M131 438q-48 0 -69 21t-21 69v16h71v-10q0 -18 5.5 -23.5t23.5 -5.5h76q18 0 23.5 5.5t5.5 23.5v83q-21 -20 -45.5 -30t-73.5 -10t-69.5 20.5t-20.5 69.5v53q0 48 20.5 69t69.5 21h99q48 0 69 -21t21 -69v-192q0 -48 -21 -69t-69 -21h-95zM136 637q66 0 110 20v57
q0 18 -5.5 23.5t-23.5 5.5h-81q-18 0 -23.5 -5.5t-5.5 -23.5v-47q0 -18 5.5 -24t23.5 -6z" />
    <glyph glyph-name="Euro" unicode="&#x20ac;" horiz-adv-x="671" 
d="M610 471h-96v86q0 30 -12.5 42.5t-41.5 12.5h-195q-30 0 -42.5 -12.5t-12.5 -42.5v-90h230v-67h-230v-95h230v-66h-230v-96q0 -30 12.5 -42.5t42.5 -12.5h195q29 0 41.5 12.5t12.5 42.5v86h96v-89q0 -140 -140 -140h-216q-140 0 -140 140v99h-80v66h80v95h-80v67h80v93
q0 140 140 140h216q140 0 140 -140v-89z" />
    <glyph glyph-name="trademark" unicode="&#x2122;" horiz-adv-x="751" 
d="M153 340v310h-100v50h255v-50h-100v-310h-55zM367 340v360h61l104 -235l106 235h60v-360h-50v266l-95 -214h-39l-97 214v-266h-50z" />
    <glyph glyph-name="oneeighth" unicode="&#x215b;" horiz-adv-x="745" 
d="M76 0l392 707h72l-392 -707h-72zM102 329v299l-79 -24v59l93 38h56v-372h-70zM515 0q-49 0 -69.5 24t-20.5 85q0 67 41 81q-36 18 -36 77q0 58 20.5 81.5t69.5 23.5h95q49 0 69.5 -23.5t20.5 -81.5q0 -59 -37 -77q41 -14 41 -81q0 -61 -20.5 -85t-69.5 -24h-104zM529 221
h76q19 0 24.5 7.5t5.5 35.5t-5.5 35.5t-24.5 7.5h-76q-18 0 -23.5 -7.5t-5.5 -35.5t5.5 -35.5t23.5 -7.5zM525 65h85q18 0 23.5 8t5.5 39t-5.5 39t-23.5 8h-85q-18 0 -23.5 -8t-5.5 -39t5.5 -39t23.5 -8z" />
    <glyph glyph-name="threeeighths" unicode="&#x215c;" horiz-adv-x="863" 
d="M194 0l392 707h72l-392 -707h-72zM118 328q-49 0 -69.5 24t-20.5 85v3h71v-1q0 -30 5.5 -38t23.5 -8h81q18 0 23.5 8t5.5 39t-5.5 39t-23.5 8h-87v62h83q18 0 23.5 7.5t5.5 35.5t-5.5 35.5t-23.5 7.5h-73q-18 0 -23.5 -7.5t-5.5 -35.5v-4h-70v7q0 58 20.5 81.5t69.5 23.5
h91q48 0 69 -23.5t21 -81.5q0 -59 -37 -77q41 -14 41 -81q0 -61 -20.5 -85t-69.5 -24h-100zM633 0q-49 0 -69.5 24t-20.5 85q0 67 41 81q-36 18 -36 77q0 58 20.5 81.5t69.5 23.5h95q49 0 69.5 -23.5t20.5 -81.5q0 -59 -37 -77q41 -14 41 -81q0 -61 -20.5 -85t-69.5 -24
h-104zM647 221h76q19 0 24.5 7.5t5.5 35.5t-5.5 35.5t-24.5 7.5h-76q-18 0 -23.5 -7.5t-5.5 -35.5t5.5 -35.5t23.5 -7.5zM643 65h85q18 0 23.5 8t5.5 39t-5.5 39t-23.5 8h-85q-18 0 -23.5 -8t-5.5 -39t5.5 -39t23.5 -8z" />
    <glyph glyph-name="fiveeighths" unicode="&#x215d;" horiz-adv-x="866" 
d="M197 0l392 707h72l-392 -707h-72zM124 328q-47 0 -68.5 21t-21.5 69v21h71v-15q0 -18 5.5 -23.5t23.5 -5.5h81q18 0 23.5 5.5t5.5 23.5v56q0 18 -5.5 23.5t-23.5 5.5q-62 0 -106 -20l-70 21v190h265v-67h-195v-102q21 21 45 30.5t70 9.5q48 0 69 -20.5t21 -69.5v-63
q0 -47 -21 -68.5t-69 -21.5h-100zM636 0q-49 0 -69.5 24t-20.5 85q0 67 41 81q-36 18 -36 77q0 58 20.5 81.5t69.5 23.5h95q49 0 69.5 -23.5t20.5 -81.5q0 -59 -37 -77q41 -14 41 -81q0 -61 -20.5 -85t-69.5 -24h-104zM650 221h76q19 0 24.5 7.5t5.5 35.5t-5.5 35.5
t-24.5 7.5h-76q-18 0 -23.5 -7.5t-5.5 -35.5t5.5 -35.5t23.5 -7.5zM646 65h85q18 0 23.5 8t5.5 39t-5.5 39t-23.5 8h-85q-18 0 -23.5 -8t-5.5 -39t5.5 -39t23.5 -8z" />
    <glyph glyph-name="seveneighths" unicode="&#x215e;" horiz-adv-x="766" 
d="M97 0l392 707h72l-392 -707h-72zM36 328l184 305h-201v67h286v-53l-192 -319h-77zM536 0q-49 0 -69.5 24t-20.5 85q0 67 41 81q-36 18 -36 77q0 58 20.5 81.5t69.5 23.5h95q49 0 69.5 -23.5t20.5 -81.5q0 -59 -37 -77q41 -14 41 -81q0 -61 -20.5 -85t-69.5 -24h-104z
M550 221h76q19 0 24.5 7.5t5.5 35.5t-5.5 35.5t-24.5 7.5h-76q-18 0 -23.5 -7.5t-5.5 -35.5t5.5 -35.5t23.5 -7.5zM546 65h85q18 0 23.5 8t5.5 39t-5.5 39t-23.5 8h-85q-18 0 -23.5 -8t-5.5 -39t5.5 -39t23.5 -8z" />
    <glyph glyph-name="minus" unicode="&#x2212;" horiz-adv-x="508" 
d="M63 317v86h382v-86h-382z" />
    <glyph glyph-name="infinity" unicode="&#x221e;" horiz-adv-x="834" 
d="M210 176q-140 0 -140 140v94q0 140 140 140h87q98 0 120 -68q22 68 120 68h87q140 0 140 -140v-94q0 -140 -140 -140h-87q-98 0 -120 68q-22 -68 -120 -68h-87zM209 259h101q30 0 42.5 12.5t12.5 42.5v98q0 30 -12.5 42.5t-42.5 12.5h-101q-30 0 -42.5 -12.5t-12.5 -42.5
v-98q0 -30 12.5 -42.5t42.5 -12.5zM524 259h101q30 0 42.5 12.5t12.5 42.5v98q0 30 -12.5 42.5t-42.5 12.5h-101q-30 0 -42.5 -12.5t-12.5 -42.5v-98q0 -30 12.5 -42.5t42.5 -12.5z" />
    <glyph glyph-name="notequal" unicode="&#x2260;" horiz-adv-x="508" 
d="M445 415h-130l-45 -95h175v-87h-216l-49 -102h-74l49 102h-92v87h133l45 95h-178v87h220l45 95h74l-45 -95h88v-87z" />
    <glyph glyph-name="B.ss01" horiz-adv-x="646" 
d="M90 0v700h346q75 0 108.5 -41.5t33.5 -145.5q0 -70 -16 -103.5t-51 -48.5q40 -14 57.5 -49.5t17.5 -114.5q0 -111 -33.5 -154t-108.5 -43h-354zM186 403h240q31 0 42.5 20t11.5 85t-11.5 85t-42.5 20h-240v-210zM186 87h248q31 0 42.5 22t11.5 94t-11.5 94t-42.5 22h-248
v-232z" />
    <glyph glyph-name="K.ss01" horiz-adv-x="643" 
d="M90 0v700h96v-299h76l243 299h111l-275 -342l286 -358h-115l-250 315h-76v-315h-96z" />
    <glyph glyph-name="Kcommaaccent.ss01" horiz-adv-x="643" 
d="M90 0v700h96v-299h76l243 299h111l-275 -342l286 -358h-115l-250 315h-76v-315h-96zM261 -311l66 127h-44v114h105v-89q0 -7 -2 -15.5t-8 -19.5t-9 -17t-11.5 -20t-9.5 -16l-39 -64h-48z" />
    <glyph glyph-name="k.ss01" horiz-adv-x="526" 
d="M74 0v730h90v-412h54l180 222h105l-212 -262l223 -278h-109l-188 238h-53v-238h-90z" />
    <glyph glyph-name="kcommaaccent.ss01" horiz-adv-x="526" 
d="M74 0v730h90v-412h54l180 222h105l-212 -262l223 -278h-109l-188 238h-53v-238h-90zM197 -311l66 127h-44v114h105v-89q0 -7 -2 -15.5t-8 -19.5t-9 -17t-11.5 -20t-9.5 -16l-39 -64h-48z" />
    <glyph glyph-name="three.ss01" horiz-adv-x="602" 
d="M196 0q-74 0 -107 42.5t-33 149.5v13h96v-9q0 -68 11.5 -88.5t43.5 -20.5h184q30 0 42 23.5t12 91.5t-12 91.5t-42 23.5h-180v86h172q31 0 42.5 20t11.5 84q0 65 -11.5 85.5t-42.5 20.5h-168q-32 0 -43.5 -20t-11.5 -86v-12h-96v14q0 106 33 148.5t107 42.5h189
q74 0 107 -41.5t33 -145.5q0 -73 -15.5 -106t-49.5 -48q39 -13 56 -47.5t17 -115.5q0 -110 -33 -153t-107 -43h-205z" />
    <glyph glyph-name="eight.ss01" horiz-adv-x="617" 
d="M201 0q-74 0 -107 43t-33 153q0 81 17 115.5t56 47.5q-34 15 -49.5 48t-15.5 106q0 104 33 145.5t107 41.5h200q74 0 107 -41.5t33 -145.5q0 -73 -15.5 -105.5t-49.5 -48.5q39 -13 56 -47.5t17 -115.5q0 -110 -33 -153t-107 -43h-216zM219 403h179q32 0 43.5 20t11.5 84
q0 66 -11.5 86t-43.5 20h-179q-31 0 -42.5 -20.5t-11.5 -85.5q0 -64 11.5 -84t42.5 -20zM211 87h195q31 0 43 23.5t12 91.5t-12 91.5t-43 23.5h-195q-30 0 -42 -23.5t-12 -91.5t12 -91.5t42 -23.5z" />
    <glyph glyph-name="zero.subs" horiz-adv-x="361" 
d="M128 -102q-48 0 -69 21t-21 69v192q0 47 21.5 68.5t68.5 21.5h105q48 0 69 -21t21 -69v-192q0 -47 -21 -68.5t-69 -21.5h-105zM138 -35h85q18 0 23.5 5.5t5.5 23.5v180q0 18 -5.5 23.5t-23.5 5.5h-85q-18 0 -23.5 -5.5t-5.5 -23.5v-180q0 -18 5.5 -23.5t23.5 -5.5z" />
    <glyph glyph-name="one.subs" horiz-adv-x="226" 
d="M102 -102v299l-79 -24v59l93 38h56v-372h-70z" />
    <glyph glyph-name="two.subs" horiz-adv-x="342" 
d="M35 -102v121q0 31 18 45t63 30l96 32q16 6 21.5 10t5.5 13v25q0 18 -5.5 23.5t-23.5 5.5h-72q-18 0 -23.5 -5.5t-5.5 -23.5v-17h-69v23q0 48 21 69t69 21h89q49 0 69.5 -21t20.5 -69v-46q0 -17 -5 -28.5t-18 -20t-24 -13.5t-34 -13l-96 -32q-11 -4 -16 -6.5t-8 -6.5
t-3 -10v-39h206v-67h-276z" />
    <glyph glyph-name="three.subs" horiz-adv-x="344" 
d="M118 -102q-49 0 -69.5 24t-20.5 85v3h71v-1q0 -30 5.5 -38t23.5 -8h81q18 0 23.5 8t5.5 39t-5.5 39t-23.5 8h-87v62h83q18 0 23.5 7.5t5.5 35.5t-5.5 35.5t-23.5 7.5h-73q-18 0 -23.5 -7.5t-5.5 -35.5v-4h-70v7q0 58 20.5 81.5t69.5 23.5h91q48 0 69 -23.5t21 -81.5
q0 -59 -37 -77q41 -14 41 -81q0 -61 -20.5 -85t-69.5 -24h-100z" />
    <glyph glyph-name="four.subs" horiz-adv-x="380" 
d="M228 -102v77h-193l-13 52l212 243h63v-233h58v-62h-58v-77h-69zM108 37h120v131z" />
    <glyph glyph-name="five.subs" horiz-adv-x="347" 
d="M124 -102q-47 0 -68.5 21t-21.5 69v21h71v-15q0 -18 5.5 -23.5t23.5 -5.5h81q18 0 23.5 5.5t5.5 23.5v56q0 18 -5.5 23.5t-23.5 5.5q-62 0 -106 -20l-70 21v190h265v-67h-195v-102q21 21 45 30.5t70 9.5q48 0 69 -20.5t21 -69.5v-63q0 -47 -21 -68.5t-69 -21.5h-100z" />
    <glyph glyph-name="six.subs" horiz-adv-x="354" 
d="M128 -1q-48 0 -69 21t-21 69v192q0 48 21 69t69 21h95q49 0 69.5 -21t20.5 -69v-16h-70v10q0 18 -5.5 23.5t-23.5 5.5h-76q-18 0 -23.5 -5.5t-5.5 -23.5v-83q21 21 45.5 30.5t73.5 9.5q48 0 69 -20.5t21 -69.5v-53q0 -48 -21 -69t-69 -21h-100zM138 66h81q18 0 23.5 5.5
t5.5 23.5v47q0 18 -5.5 24t-23.5 6q-68 0 -110 -20v-57q0 -18 5.5 -23.5t23.5 -5.5z" />
    <glyph glyph-name="seven.subs" horiz-adv-x="327" 
d="M36 -102l184 305h-201v67h286v-53l-192 -319h-77z" />
    <glyph glyph-name="eight.subs" horiz-adv-x="355" 
d="M125 -102q-49 0 -69.5 24t-20.5 85q0 67 41 81q-36 18 -36 77q0 58 20.5 81.5t69.5 23.5h95q49 0 69.5 -23.5t20.5 -81.5q0 -59 -37 -77q41 -14 41 -81q0 -61 -20.5 -85t-69.5 -24h-104zM139 119h76q19 0 24.5 7.5t5.5 35.5t-5.5 35.5t-24.5 7.5h-76q-18 0 -23.5 -7.5
t-5.5 -35.5t5.5 -35.5t23.5 -7.5zM135 -37h85q18 0 23.5 8t5.5 39t-5.5 39t-23.5 8h-85q-18 0 -23.5 -8t-5.5 -39t5.5 -39t23.5 -8z" />
    <glyph glyph-name="nine.subs" horiz-adv-x="354" 
d="M131 -102q-48 0 -69 21t-21 69v16h71v-10q0 -18 5.5 -23.5t23.5 -5.5h76q18 0 23.5 5.5t5.5 23.5v83q-21 -20 -45.5 -30t-73.5 -10t-69.5 20.5t-20.5 69.5v53q0 48 20.5 69t69.5 21h99q48 0 69 -21t21 -69v-192q0 -48 -21 -69t-69 -21h-95zM136 97q66 0 110 20v57
q0 18 -5.5 23.5t-23.5 5.5h-81q-18 0 -23.5 -5.5t-5.5 -23.5v-47q0 -18 5.5 -24t23.5 -6z" />
    <glyph glyph-name="zero.tf" 
d="M213 0q-140 0 -140 140v420q0 140 140 140h213q140 0 140 -140v-420q0 -140 -140 -140h-213zM223 88h193q29 0 41.5 12.5t12.5 42.5v414q0 30 -12.5 42.5t-41.5 12.5h-193q-29 0 -41.5 -12.5t-12.5 -42.5v-414q0 -30 12.5 -42.5t41.5 -12.5z" />
    <glyph glyph-name="one.tf" 
d="M107 0v88h176v520l-176 -50v92l175 50h97v-612h164v-88h-436z" />
    <glyph glyph-name="two.tf" 
d="M84 0v197q0 52 31 79.5t113 64.5l167 76q34 16 48 27.5t14 31.5v81q0 30 -12.5 42.5t-42.5 12.5h-159q-30 0 -42.5 -12.5t-12.5 -42.5v-66h-95v69q0 140 140 140h180q140 0 140 -140v-95q0 -52 -31 -79t-113 -65l-168 -76q-34 -16 -47.5 -27.5t-13.5 -31.5v-98h375v-88
h-471z" />
    <glyph glyph-name="three.tf" 
d="M214 0q-140 0 -140 140v65h96v-63q0 -30 12.5 -42.5t42.5 -12.5h184q30 0 42.5 12.5t12.5 42.5v120q0 30 -12.5 42.5t-42.5 12.5h-180v86h172q30 0 42.5 12.5t12.5 41.5v101q0 30 -12.5 42.5t-42.5 12.5h-168q-30 0 -42.5 -12.5t-12.5 -42.5v-63h-96v65q0 140 140 140
h190q140 0 140 -140v-95q0 -76 -65 -106q73 -24 73 -106v-113q0 -140 -140 -140h-206z" />
    <glyph glyph-name="four.tf" 
d="M401 0v168h-346l-17 73l356 459h102v-445h102v-87h-102v-168h-95zM153 255h248v320z" />
    <glyph glyph-name="five.tf" 
d="M228 0q-140 0 -140 140v65h96v-62q0 -30 12.5 -42.5t41.5 -12.5h168q30 0 42.5 12.5t12.5 42.5v174q0 31 -16.5 43t-66.5 12q-63 0 -103.5 -13t-83.5 -40l-96 27v354h448v-88h-352v-234q38 40 79.5 60t115.5 20q93 0 132 -33.5t39 -106.5v-177q0 -141 -142 -141h-187z
" />
    <glyph glyph-name="six.tf" 
d="M227 0q-140 0 -140 140v420q0 140 140 140h184q140 0 140 -140v-59h-96v56q0 55 -55 55h-162q-55 0 -55 -55v-198q39 40 82 60t121 20q95 0 134.5 -33.5t39.5 -106.5v-159q0 -140 -140 -140h-193zM238 88h172q29 0 41.5 12.5t12.5 42.5v154q0 31 -17.5 43t-70.5 12
q-66 0 -108.5 -13t-84.5 -40v-156q0 -30 12.5 -42.5t42.5 -12.5z" />
    <glyph glyph-name="seven.tf" 
d="M144 0l309 611h-387v89h499v-69l-319 -631h-102z" />
    <glyph glyph-name="eight.tf" 
d="M212 0q-140 0 -140 140v113q0 82 73 106q-65 30 -65 106v95q0 140 140 140h200q140 0 140 -140v-95q0 -76 -65 -106q73 -24 73 -106v-113q0 -140 -140 -140h-216zM231 403h178q30 0 42.5 12.5t12.5 41.5v101q0 30 -12.5 42.5t-42.5 12.5h-178q-30 0 -42.5 -12.5
t-12.5 -42.5v-101q0 -29 12.5 -41.5t42.5 -12.5zM223 87h194q30 0 42.5 12.5t12.5 42.5v120q0 30 -12.5 42.5t-42.5 12.5h-194q-30 0 -42.5 -12.5t-12.5 -42.5v-120q0 -30 12.5 -42.5t42.5 -12.5z" />
    <glyph glyph-name="nine.tf" 
d="M228 0q-140 0 -140 140v59h96v-56q0 -29 13 -42t42 -13h162q29 0 42 13t13 42v205q-39 -40 -81.5 -60t-120.5 -20q-95 0 -135 33.5t-40 106.5v152q0 140 140 140h193q140 0 140 -140v-420q0 -140 -140 -140h-184zM263 354q66 0 108.5 13t84.5 40v150q0 30 -12.5 42.5
t-42.5 12.5h-172q-29 0 -41.5 -12.5t-12.5 -42.5v-148q0 -31 17.5 -43t70.5 -12z" />
    <glyph glyph-name="zero.dnom" horiz-adv-x="361" 
d="M128 0q-48 0 -69 21t-21 69v192q0 47 21.5 68.5t68.5 21.5h105q48 0 69 -21t21 -69v-192q0 -47 -21 -68.5t-69 -21.5h-105zM138 67h85q18 0 23.5 5.5t5.5 23.5v180q0 18 -5.5 23.5t-23.5 5.5h-85q-18 0 -23.5 -5.5t-5.5 -23.5v-180q0 -18 5.5 -23.5t23.5 -5.5z" />
    <glyph glyph-name="one.dnom" horiz-adv-x="226" 
d="M102 0v299l-79 -24v59l93 38h56v-372h-70z" />
    <glyph glyph-name="two.dnom" horiz-adv-x="342" 
d="M35 0v121q0 31 18 45t63 30l96 32q16 6 21.5 10t5.5 13v25q0 18 -5.5 23.5t-23.5 5.5h-72q-18 0 -23.5 -5.5t-5.5 -23.5v-17h-69v23q0 48 21 69t69 21h89q49 0 69.5 -21t20.5 -69v-46q0 -17 -5 -28.5t-18 -20t-24 -13.5t-34 -13l-96 -32q-11 -4 -16 -6.5t-8 -6.5t-3 -10
v-39h206v-67h-276z" />
    <glyph glyph-name="three.dnom" horiz-adv-x="344" 
d="M118 0q-49 0 -69.5 24t-20.5 85v3h71v-1q0 -30 5.5 -38t23.5 -8h81q18 0 23.5 8t5.5 39t-5.5 39t-23.5 8h-87v62h83q18 0 23.5 7.5t5.5 35.5t-5.5 35.5t-23.5 7.5h-73q-18 0 -23.5 -7.5t-5.5 -35.5v-4h-70v7q0 58 20.5 81.5t69.5 23.5h91q48 0 69 -23.5t21 -81.5
q0 -59 -37 -77q41 -14 41 -81q0 -61 -20.5 -85t-69.5 -24h-100z" />
    <glyph glyph-name="four.dnom" horiz-adv-x="380" 
d="M228 0v77h-193l-13 52l212 243h63v-233h58v-62h-58v-77h-69zM108 139h120v131z" />
    <glyph glyph-name="five.dnom" horiz-adv-x="347" 
d="M124 0q-47 0 -68.5 21t-21.5 69v21h71v-15q0 -18 5.5 -23.5t23.5 -5.5h81q18 0 23.5 5.5t5.5 23.5v56q0 18 -5.5 23.5t-23.5 5.5q-62 0 -106 -20l-70 21v190h265v-67h-195v-102q21 21 45 30.5t70 9.5q48 0 69 -20.5t21 -69.5v-63q0 -47 -21 -68.5t-69 -21.5h-100z" />
    <glyph glyph-name="six.dnom" horiz-adv-x="354" 
d="M128 0q-48 0 -69 21t-21 69v192q0 48 21 69t69 21h95q49 0 69.5 -21t20.5 -69v-16h-70v10q0 18 -5.5 23.5t-23.5 5.5h-76q-18 0 -23.5 -5.5t-5.5 -23.5v-83q21 21 45.5 30.5t73.5 9.5q48 0 69 -20.5t21 -69.5v-53q0 -48 -21 -69t-69 -21h-100zM138 67h81q18 0 23.5 5.5
t5.5 23.5v47q0 18 -5.5 24t-23.5 6q-68 0 -110 -20v-57q0 -18 5.5 -23.5t23.5 -5.5z" />
    <glyph glyph-name="seven.dnom" horiz-adv-x="327" 
d="M36 0l184 305h-201v67h286v-53l-192 -319h-77z" />
    <glyph glyph-name="eight.dnom" horiz-adv-x="355" 
d="M125 0q-49 0 -69.5 24t-20.5 85q0 67 41 81q-36 18 -36 77q0 58 20.5 81.5t69.5 23.5h95q49 0 69.5 -23.5t20.5 -81.5q0 -59 -37 -77q41 -14 41 -81q0 -61 -20.5 -85t-69.5 -24h-104zM139 221h76q19 0 24.5 7.5t5.5 35.5t-5.5 35.5t-24.5 7.5h-76q-18 0 -23.5 -7.5
t-5.5 -35.5t5.5 -35.5t23.5 -7.5zM135 65h85q18 0 23.5 8t5.5 39t-5.5 39t-23.5 8h-85q-18 0 -23.5 -8t-5.5 -39t5.5 -39t23.5 -8z" />
    <glyph glyph-name="nine.dnom" horiz-adv-x="354" 
d="M131 0q-48 0 -69 21t-21 69v16h71v-10q0 -18 5.5 -23.5t23.5 -5.5h76q18 0 23.5 5.5t5.5 23.5v83q-21 -20 -45.5 -30t-73.5 -10t-69.5 20.5t-20.5 69.5v53q0 48 20.5 69t69.5 21h99q48 0 69 -21t21 -69v-192q0 -48 -21 -69t-69 -21h-95zM136 199q66 0 110 20v57
q0 18 -5.5 23.5t-23.5 5.5h-81q-18 0 -23.5 -5.5t-5.5 -23.5v-47q0 -18 5.5 -24t23.5 -6z" />
    <glyph glyph-name="zero.numr" horiz-adv-x="361" 
d="M128 328q-48 0 -69 21t-21 69v192q0 47 21.5 68.5t68.5 21.5h105q48 0 69 -21t21 -69v-192q0 -47 -21 -68.5t-69 -21.5h-105zM138 395h85q18 0 23.5 5.5t5.5 23.5v180q0 18 -5.5 23.5t-23.5 5.5h-85q-18 0 -23.5 -5.5t-5.5 -23.5v-180q0 -18 5.5 -23.5t23.5 -5.5z" />
    <glyph glyph-name="one.numr" horiz-adv-x="226" 
d="M102 329v299l-79 -24v59l93 38h56v-372h-70z" />
    <glyph glyph-name="two.numr" horiz-adv-x="342" 
d="M35 328v121q0 31 18 45t63 30l96 32q16 6 21.5 10t5.5 13v25q0 18 -5.5 23.5t-23.5 5.5h-72q-18 0 -23.5 -5.5t-5.5 -23.5v-17h-69v23q0 48 21 69t69 21h89q49 0 69.5 -21t20.5 -69v-46q0 -17 -5 -28.5t-18 -20t-24 -13.5t-34 -13l-96 -32q-11 -4 -16 -6.5t-8 -6.5
t-3 -10v-39h206v-67h-276z" />
    <glyph glyph-name="three.numr" horiz-adv-x="344" 
d="M118 328q-49 0 -69.5 24t-20.5 85v3h71v-1q0 -30 5.5 -38t23.5 -8h81q18 0 23.5 8t5.5 39t-5.5 39t-23.5 8h-87v62h83q18 0 23.5 7.5t5.5 35.5t-5.5 35.5t-23.5 7.5h-73q-18 0 -23.5 -7.5t-5.5 -35.5v-4h-70v7q0 58 20.5 81.5t69.5 23.5h91q48 0 69 -23.5t21 -81.5
q0 -59 -37 -77q41 -14 41 -81q0 -61 -20.5 -85t-69.5 -24h-100z" />
    <glyph glyph-name="four.numr" horiz-adv-x="380" 
d="M228 328v77h-193l-13 52l212 243h63v-233h58v-62h-58v-77h-69zM108 467h120v131z" />
    <glyph glyph-name="five.numr" horiz-adv-x="347" 
d="M124 328q-47 0 -68.5 21t-21.5 69v21h71v-15q0 -18 5.5 -23.5t23.5 -5.5h81q18 0 23.5 5.5t5.5 23.5v56q0 18 -5.5 23.5t-23.5 5.5q-62 0 -106 -20l-70 21v190h265v-67h-195v-102q21 21 45 30.5t70 9.5q48 0 69 -20.5t21 -69.5v-63q0 -47 -21 -68.5t-69 -21.5h-100z" />
    <glyph glyph-name="six.numr" horiz-adv-x="354" 
d="M128 328q-48 0 -69 21t-21 69v192q0 48 21 69t69 21h95q49 0 69.5 -21t20.5 -69v-16h-70v10q0 18 -5.5 23.5t-23.5 5.5h-76q-18 0 -23.5 -5.5t-5.5 -23.5v-83q21 21 45.5 30.5t73.5 9.5q48 0 69 -20.5t21 -69.5v-53q0 -48 -21 -69t-69 -21h-100zM138 395h81
q18 0 23.5 5.5t5.5 23.5v47q0 18 -5.5 24t-23.5 6q-68 0 -110 -20v-57q0 -18 5.5 -23.5t23.5 -5.5z" />
    <glyph glyph-name="seven.numr" horiz-adv-x="327" 
d="M36 328l184 305h-201v67h286v-53l-192 -319h-77z" />
    <glyph glyph-name="eight.numr" horiz-adv-x="355" 
d="M125 328q-49 0 -69.5 24t-20.5 85q0 67 41 81q-36 18 -36 77q0 58 20.5 81.5t69.5 23.5h95q49 0 69.5 -23.5t20.5 -81.5q0 -59 -37 -77q41 -14 41 -81q0 -61 -20.5 -85t-69.5 -24h-104zM139 549h76q19 0 24.5 7.5t5.5 35.5t-5.5 35.5t-24.5 7.5h-76q-18 0 -23.5 -7.5
t-5.5 -35.5t5.5 -35.5t23.5 -7.5zM135 393h85q18 0 23.5 8t5.5 39t-5.5 39t-23.5 8h-85q-18 0 -23.5 -8t-5.5 -39t5.5 -39t23.5 -8z" />
    <glyph glyph-name="nine.numr" horiz-adv-x="354" 
d="M131 328q-48 0 -69 21t-21 69v16h71v-10q0 -18 5.5 -23.5t23.5 -5.5h76q18 0 23.5 5.5t5.5 23.5v83q-21 -20 -45.5 -30t-73.5 -10t-69.5 20.5t-20.5 69.5v53q0 48 20.5 69t69.5 21h99q48 0 69 -21t21 -69v-192q0 -48 -21 -69t-69 -21h-95zM136 527q66 0 110 20v57
q0 18 -5.5 23.5t-23.5 5.5h-81q-18 0 -23.5 -5.5t-5.5 -23.5v-47q0 -18 5.5 -24t23.5 -6z" />
    <glyph glyph-name="numbersign.tf" 
d="M619 443h-117l-50 -163h98v-82h-123l-60 -198h-89l60 198h-132l-60 -198h-90l60 198h-96v82h121l50 163h-103v82h128l53 175h89l-53 -175h132l53 175h90l-53 -175h92v-82zM363 280l49 163h-132l-49 -163h132z" />
    <glyph glyph-name="cent.tf" 
d="M286 0v99h-40q-140 0 -140 140v228q0 140 140 140h40v93h76v-93h38q140 0 140 -140v-40h-92v41q0 30 -12.5 42.5t-41.5 12.5h-36v-340h36q29 0 41.5 12.5t12.5 42.5v41h92v-40q0 -140 -140 -140h-38v-99h-76zM252 183h38v340h-38q-29 0 -41.5 -12.5t-12.5 -42.5v-230
q0 -30 12.5 -42.5t41.5 -12.5z" />
    <glyph glyph-name="currency.tf" 
d="M519 278q0 -42 -12 -70l76 -76l-58 -60l-77 77q-30 -11 -69 -11h-119q-39 0 -69 11l-77 -77l-58 60l76 76q-12 28 -12 70v160q0 38 11 68l-75 75l58 60l75 -75q28 12 71 12h119q43 0 71 -12l75 75l58 -60l-75 -75q11 -30 11 -68v-160zM377 219q30 0 42.5 12.5t12.5 41.5
v170q0 29 -12.5 41.5t-42.5 12.5h-115q-30 0 -42.5 -12.5t-12.5 -41.5v-170q0 -29 12.5 -41.5t42.5 -12.5h115z" />
    <glyph glyph-name="dollar.tf" 
d="M423 379q37 -8 59 -17.5t44.5 -29t32.5 -55.5t10 -89q0 -104 -33.5 -146t-108.5 -42h-67v-95h-81v95h-66q-74 0 -107 42t-33 146v29h95v-34q0 -59 12 -77.5t43 -18.5h62v230l-64 15q-37 8 -59 17.5t-44.5 28.5t-32.5 53.5t-10 85.5q0 101 33.5 142t108.5 41h62v95h81v-95
h54q73 0 106.5 -41t33.5 -142v-26h-95v32q0 54 -11.5 72t-42.5 18h-51v-218zM253 418l32 -7v202h-58q-31 0 -42.5 -18t-11.5 -72q0 -57 14.5 -75.5t65.5 -29.5zM417 87q31 0 42.5 19t11.5 77q0 62 -13 80t-65 30l-39 9v-215h63z" />
    <glyph glyph-name="Euro.tf" 
d="M603 471h-96v86q0 30 -12.5 42.5t-42.5 12.5h-190q-30 0 -42.5 -12.5t-12.5 -42.5v-90h230v-67h-230v-95h230v-66h-230v-96q0 -30 12.5 -42.5t42.5 -12.5h190q30 0 42.5 12.5t12.5 42.5v86h96v-89q0 -140 -140 -140h-212q-140 0 -140 140v99h-81v66h81v95h-81v67h81v93
q0 140 140 140h212q140 0 140 -140v-89z" />
    <glyph glyph-name="florin.tf" 
d="M134 0v88h69q30 0 42.5 12.5t12.5 42.5v210h-117v83h117v124q0 140 140 140h106v-88h-95q-30 0 -42.5 -12.5t-12.5 -42.5v-121h140v-83h-140v-213q0 -140 -140 -140h-80z" />
    <glyph glyph-name="sterling.tf" 
d="M221 88h353v-88h-531v88h62q11 0 15.5 4.5t4.5 15.5v197h-82v86h82v169q0 140 140 140h165q140 0 140 -140v-81h-96v78q0 30 -12.5 42.5t-41.5 12.5h-144q-30 0 -42.5 -12.5t-12.5 -42.5v-166h192v-86h-192v-217z" />
    <glyph glyph-name="yen.tf" 
d="M609 700l-199 -375h121v-66h-157l-7 -14v-43h164v-66h-164v-136h-96v136h-163v66h163v43l-7 14h-156v66h120l-199 375h104l187 -358l187 358h102z" />
    <glyph glyph-name="ampersand.ss01" horiz-adv-x="658" 
d="M209 0q-74 0 -107 43t-33 153q0 80 17 115.5t56 47.5q-34 15 -49.5 48.5t-15.5 106.5q0 103 33.5 144.5t106.5 41.5h173q140 0 140 -140v-65h-96v63q0 30 -12.5 42.5t-42.5 12.5h-152q-31 0 -42.5 -20.5t-11.5 -85.5q0 -64 11.5 -84t42.5 -20h402v-86h-78v-177
q0 -140 -140 -140h-202zM219 87h182q29 0 41.5 12.5t12.5 42.5v175h-236q-31 0 -42.5 -21.5t-11.5 -93.5t11.5 -93.5t42.5 -21.5z" />
    </font>
</defs>
</svg>
